<?xml version="1.0" encoding="utf-8" standalone="no"?>
<!DOCTYPE svg PUBLIC "-//W3C//DTD SVG 1.1//EN"
  "http://www.w3.org/Graphics/SVG/1.1/DTD/svg11.dtd">
<svg xmlns:xlink="http://www.w3.org/1999/xlink" width="1080pt" height="230.4pt" viewBox="0 0 1080 230.4" xmlns="http://www.w3.org/2000/svg" version="1.1">
 <metadata>
  <rdf:RDF xmlns:dc="http://purl.org/dc/elements/1.1/" xmlns:cc="http://creativecommons.org/ns#" xmlns:rdf="http://www.w3.org/1999/02/22-rdf-syntax-ns#">
   <cc:Work>
    <dc:type rdf:resource="http://purl.org/dc/dcmitype/StillImage"/>
    <dc:date>2025-07-24T08:30:58.391583</dc:date>
    <dc:format>image/svg+xml</dc:format>
    <dc:creator>
     <cc:Agent>
      <dc:title>Matplotlib v3.9.2, https://matplotlib.org/</dc:title>
     </cc:Agent>
    </dc:creator>
   </cc:Work>
  </rdf:RDF>
 </metadata>
 <defs>
  <style type="text/css">*{stroke-linejoin: round; stroke-linecap: butt}</style>
 </defs>
 <g id="figure_1">
  <g id="patch_1">
   <path d="M 0 230.4 
L 1080 230.4 
L 1080 0 
L 0 0 
z
" style="fill: #ffffff"/>
  </g>
  <g id="axes_1">
   <g id="patch_2">
    <path d="M 53.55 142.308 
L 348.736837 142.308 
L 348.736837 12.96 
L 53.55 12.96 
z
" style="fill: #ffffff"/>
   </g>
   <g id="matplotlib.axis_1">
    <g id="xtick_1">
     <g id="line2d_1">
      <path d="M 66.967583 142.308 
L 66.967583 12.96 
" clip-path="url(#p39243e6edc)" style="fill: none; stroke: #afafaf; stroke-opacity: 0.55; stroke-width: 0.4; stroke-linecap: round"/>
     </g>
     <g id="text_1">
      <!-- 0 -->
      <g style="fill: #262626" transform="translate(64.187115 158.965813) scale(0.1 -0.1)">
       <defs>
        <path id="ArialMT-30" d="M 266 2259 
Q 266 3072 433 3567 
Q 600 4063 929 4331 
Q 1259 4600 1759 4600 
Q 2128 4600 2406 4451 
Q 2684 4303 2865 4023 
Q 3047 3744 3150 3342 
Q 3253 2941 3253 2259 
Q 3253 1453 3087 958 
Q 2922 463 2592 192 
Q 2263 -78 1759 -78 
Q 1097 -78 719 397 
Q 266 969 266 2259 
z
M 844 2259 
Q 844 1131 1108 757 
Q 1372 384 1759 384 
Q 2147 384 2411 759 
Q 2675 1134 2675 2259 
Q 2675 3391 2411 3762 
Q 2147 4134 1753 4134 
Q 1366 4134 1134 3806 
Q 844 3388 844 2259 
z
" transform="scale(0.015625)"/>
       </defs>
       <use xlink:href="#ArialMT-30"/>
      </g>
     </g>
    </g>
    <g id="xtick_2">
     <g id="line2d_2">
      <path d="M 120.637917 142.308 
L 120.637917 12.96 
" clip-path="url(#p39243e6edc)" style="fill: none; stroke: #afafaf; stroke-opacity: 0.55; stroke-width: 0.4; stroke-linecap: round"/>
     </g>
     <g id="text_2">
      <!-- 20000 -->
      <g style="fill: #262626" transform="translate(106.735574 158.965813) scale(0.1 -0.1)">
       <defs>
        <path id="ArialMT-32" d="M 3222 541 
L 3222 0 
L 194 0 
Q 188 203 259 391 
Q 375 700 629 1000 
Q 884 1300 1366 1694 
Q 2113 2306 2375 2664 
Q 2638 3022 2638 3341 
Q 2638 3675 2398 3904 
Q 2159 4134 1775 4134 
Q 1369 4134 1125 3890 
Q 881 3647 878 3216 
L 300 3275 
Q 359 3922 746 4261 
Q 1134 4600 1788 4600 
Q 2447 4600 2831 4234 
Q 3216 3869 3216 3328 
Q 3216 3053 3103 2787 
Q 2991 2522 2730 2228 
Q 2469 1934 1863 1422 
Q 1356 997 1212 845 
Q 1069 694 975 541 
L 3222 541 
z
" transform="scale(0.015625)"/>
       </defs>
       <use xlink:href="#ArialMT-32"/>
       <use xlink:href="#ArialMT-30" x="55.615234"/>
       <use xlink:href="#ArialMT-30" x="111.230469"/>
       <use xlink:href="#ArialMT-30" x="166.845703"/>
       <use xlink:href="#ArialMT-30" x="222.460938"/>
      </g>
     </g>
    </g>
    <g id="xtick_3">
     <g id="line2d_3">
      <path d="M 174.308251 142.308 
L 174.308251 12.96 
" clip-path="url(#p39243e6edc)" style="fill: none; stroke: #afafaf; stroke-opacity: 0.55; stroke-width: 0.4; stroke-linecap: round"/>
     </g>
     <g id="text_3">
      <!-- 40000 -->
      <g style="fill: #262626" transform="translate(160.405908 158.965813) scale(0.1 -0.1)">
       <defs>
        <path id="ArialMT-34" d="M 2069 0 
L 2069 1097 
L 81 1097 
L 81 1613 
L 2172 4581 
L 2631 4581 
L 2631 1613 
L 3250 1613 
L 3250 1097 
L 2631 1097 
L 2631 0 
L 2069 0 
z
M 2069 1613 
L 2069 3678 
L 634 1613 
L 2069 1613 
z
" transform="scale(0.015625)"/>
       </defs>
       <use xlink:href="#ArialMT-34"/>
       <use xlink:href="#ArialMT-30" x="55.615234"/>
       <use xlink:href="#ArialMT-30" x="111.230469"/>
       <use xlink:href="#ArialMT-30" x="166.845703"/>
       <use xlink:href="#ArialMT-30" x="222.460938"/>
      </g>
     </g>
    </g>
    <g id="xtick_4">
     <g id="line2d_4">
      <path d="M 227.978585 142.308 
L 227.978585 12.96 
" clip-path="url(#p39243e6edc)" style="fill: none; stroke: #afafaf; stroke-opacity: 0.55; stroke-width: 0.4; stroke-linecap: round"/>
     </g>
     <g id="text_4">
      <!-- 60000 -->
      <g style="fill: #262626" transform="translate(214.076241 158.965813) scale(0.1 -0.1)">
       <defs>
        <path id="ArialMT-36" d="M 3184 3459 
L 2625 3416 
Q 2550 3747 2413 3897 
Q 2184 4138 1850 4138 
Q 1581 4138 1378 3988 
Q 1113 3794 959 3422 
Q 806 3050 800 2363 
Q 1003 2672 1297 2822 
Q 1591 2972 1913 2972 
Q 2475 2972 2870 2558 
Q 3266 2144 3266 1488 
Q 3266 1056 3080 686 
Q 2894 316 2569 119 
Q 2244 -78 1831 -78 
Q 1128 -78 684 439 
Q 241 956 241 2144 
Q 241 3472 731 4075 
Q 1159 4600 1884 4600 
Q 2425 4600 2770 4297 
Q 3116 3994 3184 3459 
z
M 888 1484 
Q 888 1194 1011 928 
Q 1134 663 1356 523 
Q 1578 384 1822 384 
Q 2178 384 2434 671 
Q 2691 959 2691 1453 
Q 2691 1928 2437 2201 
Q 2184 2475 1800 2475 
Q 1419 2475 1153 2201 
Q 888 1928 888 1484 
z
" transform="scale(0.015625)"/>
       </defs>
       <use xlink:href="#ArialMT-36"/>
       <use xlink:href="#ArialMT-30" x="55.615234"/>
       <use xlink:href="#ArialMT-30" x="111.230469"/>
       <use xlink:href="#ArialMT-30" x="166.845703"/>
       <use xlink:href="#ArialMT-30" x="222.460938"/>
      </g>
     </g>
    </g>
    <g id="xtick_5">
     <g id="line2d_5">
      <path d="M 281.648919 142.308 
L 281.648919 12.96 
" clip-path="url(#p39243e6edc)" style="fill: none; stroke: #afafaf; stroke-opacity: 0.55; stroke-width: 0.4; stroke-linecap: round"/>
     </g>
     <g id="text_5">
      <!-- 80000 -->
      <g style="fill: #262626" transform="translate(267.746575 158.965813) scale(0.1 -0.1)">
       <defs>
        <path id="ArialMT-38" d="M 1131 2484 
Q 781 2613 612 2850 
Q 444 3088 444 3419 
Q 444 3919 803 4259 
Q 1163 4600 1759 4600 
Q 2359 4600 2725 4251 
Q 3091 3903 3091 3403 
Q 3091 3084 2923 2848 
Q 2756 2613 2416 2484 
Q 2838 2347 3058 2040 
Q 3278 1734 3278 1309 
Q 3278 722 2862 322 
Q 2447 -78 1769 -78 
Q 1091 -78 675 323 
Q 259 725 259 1325 
Q 259 1772 486 2073 
Q 713 2375 1131 2484 
z
M 1019 3438 
Q 1019 3113 1228 2906 
Q 1438 2700 1772 2700 
Q 2097 2700 2305 2904 
Q 2513 3109 2513 3406 
Q 2513 3716 2298 3927 
Q 2084 4138 1766 4138 
Q 1444 4138 1231 3931 
Q 1019 3725 1019 3438 
z
M 838 1322 
Q 838 1081 952 856 
Q 1066 631 1291 507 
Q 1516 384 1775 384 
Q 2178 384 2440 643 
Q 2703 903 2703 1303 
Q 2703 1709 2433 1975 
Q 2163 2241 1756 2241 
Q 1359 2241 1098 1978 
Q 838 1716 838 1322 
z
" transform="scale(0.015625)"/>
       </defs>
       <use xlink:href="#ArialMT-38"/>
       <use xlink:href="#ArialMT-30" x="55.615234"/>
       <use xlink:href="#ArialMT-30" x="111.230469"/>
       <use xlink:href="#ArialMT-30" x="166.845703"/>
       <use xlink:href="#ArialMT-30" x="222.460938"/>
      </g>
     </g>
    </g>
    <g id="xtick_6">
     <g id="line2d_6">
      <path d="M 335.319253 142.308 
L 335.319253 12.96 
" clip-path="url(#p39243e6edc)" style="fill: none; stroke: #afafaf; stroke-opacity: 0.55; stroke-width: 0.4; stroke-linecap: round"/>
     </g>
     <g id="text_6">
      <!-- 100000 -->
      <g style="fill: #262626" transform="translate(318.636441 158.965813) scale(0.1 -0.1)">
       <defs>
        <path id="ArialMT-31" d="M 2384 0 
L 1822 0 
L 1822 3584 
Q 1619 3391 1289 3197 
Q 959 3003 697 2906 
L 697 3450 
Q 1169 3672 1522 3987 
Q 1875 4303 2022 4600 
L 2384 4600 
L 2384 0 
z
" transform="scale(0.015625)"/>
       </defs>
       <use xlink:href="#ArialMT-31"/>
       <use xlink:href="#ArialMT-30" x="55.615234"/>
       <use xlink:href="#ArialMT-30" x="111.230469"/>
       <use xlink:href="#ArialMT-30" x="166.845703"/>
       <use xlink:href="#ArialMT-30" x="222.460938"/>
       <use xlink:href="#ArialMT-30" x="278.076172"/>
      </g>
     </g>
    </g>
    <g id="text_7">
     <!-- TimeSteps -->
     <g style="fill: #262626" transform="translate(175.064825 172.960969) scale(0.11 -0.11)">
      <defs>
       <path id="ArialMT-54" d="M 1659 0 
L 1659 4041 
L 150 4041 
L 150 4581 
L 3781 4581 
L 3781 4041 
L 2266 4041 
L 2266 0 
L 1659 0 
z
" transform="scale(0.015625)"/>
       <path id="ArialMT-69" d="M 425 3934 
L 425 4581 
L 988 4581 
L 988 3934 
L 425 3934 
z
M 425 0 
L 425 3319 
L 988 3319 
L 988 0 
L 425 0 
z
" transform="scale(0.015625)"/>
       <path id="ArialMT-6d" d="M 422 0 
L 422 3319 
L 925 3319 
L 925 2853 
Q 1081 3097 1340 3245 
Q 1600 3394 1931 3394 
Q 2300 3394 2536 3241 
Q 2772 3088 2869 2813 
Q 3263 3394 3894 3394 
Q 4388 3394 4653 3120 
Q 4919 2847 4919 2278 
L 4919 0 
L 4359 0 
L 4359 2091 
Q 4359 2428 4304 2576 
Q 4250 2725 4106 2815 
Q 3963 2906 3769 2906 
Q 3419 2906 3187 2673 
Q 2956 2441 2956 1928 
L 2956 0 
L 2394 0 
L 2394 2156 
Q 2394 2531 2256 2718 
Q 2119 2906 1806 2906 
Q 1569 2906 1367 2781 
Q 1166 2656 1075 2415 
Q 984 2175 984 1722 
L 984 0 
L 422 0 
z
" transform="scale(0.015625)"/>
       <path id="ArialMT-65" d="M 2694 1069 
L 3275 997 
Q 3138 488 2766 206 
Q 2394 -75 1816 -75 
Q 1088 -75 661 373 
Q 234 822 234 1631 
Q 234 2469 665 2931 
Q 1097 3394 1784 3394 
Q 2450 3394 2872 2941 
Q 3294 2488 3294 1666 
Q 3294 1616 3291 1516 
L 816 1516 
Q 847 969 1125 678 
Q 1403 388 1819 388 
Q 2128 388 2347 550 
Q 2566 713 2694 1069 
z
M 847 1978 
L 2700 1978 
Q 2663 2397 2488 2606 
Q 2219 2931 1791 2931 
Q 1403 2931 1139 2672 
Q 875 2413 847 1978 
z
" transform="scale(0.015625)"/>
       <path id="ArialMT-53" d="M 288 1472 
L 859 1522 
Q 900 1178 1048 958 
Q 1197 738 1509 602 
Q 1822 466 2213 466 
Q 2559 466 2825 569 
Q 3091 672 3220 851 
Q 3350 1031 3350 1244 
Q 3350 1459 3225 1620 
Q 3100 1781 2813 1891 
Q 2628 1963 1997 2114 
Q 1366 2266 1113 2400 
Q 784 2572 623 2826 
Q 463 3081 463 3397 
Q 463 3744 659 4045 
Q 856 4347 1234 4503 
Q 1613 4659 2075 4659 
Q 2584 4659 2973 4495 
Q 3363 4331 3572 4012 
Q 3781 3694 3797 3291 
L 3216 3247 
Q 3169 3681 2898 3903 
Q 2628 4125 2100 4125 
Q 1550 4125 1298 3923 
Q 1047 3722 1047 3438 
Q 1047 3191 1225 3031 
Q 1400 2872 2139 2705 
Q 2878 2538 3153 2413 
Q 3553 2228 3743 1945 
Q 3934 1663 3934 1294 
Q 3934 928 3725 604 
Q 3516 281 3123 101 
Q 2731 -78 2241 -78 
Q 1619 -78 1198 103 
Q 778 284 539 648 
Q 300 1013 288 1472 
z
" transform="scale(0.015625)"/>
       <path id="ArialMT-74" d="M 1650 503 
L 1731 6 
Q 1494 -44 1306 -44 
Q 1000 -44 831 53 
Q 663 150 594 308 
Q 525 466 525 972 
L 525 2881 
L 113 2881 
L 113 3319 
L 525 3319 
L 525 4141 
L 1084 4478 
L 1084 3319 
L 1650 3319 
L 1650 2881 
L 1084 2881 
L 1084 941 
Q 1084 700 1114 631 
Q 1144 563 1211 522 
Q 1278 481 1403 481 
Q 1497 481 1650 503 
z
" transform="scale(0.015625)"/>
       <path id="ArialMT-70" d="M 422 -1272 
L 422 3319 
L 934 3319 
L 934 2888 
Q 1116 3141 1344 3267 
Q 1572 3394 1897 3394 
Q 2322 3394 2647 3175 
Q 2972 2956 3137 2557 
Q 3303 2159 3303 1684 
Q 3303 1175 3120 767 
Q 2938 359 2589 142 
Q 2241 -75 1856 -75 
Q 1575 -75 1351 44 
Q 1128 163 984 344 
L 984 -1272 
L 422 -1272 
z
M 931 1641 
Q 931 1000 1190 694 
Q 1450 388 1819 388 
Q 2194 388 2461 705 
Q 2728 1022 2728 1688 
Q 2728 2322 2467 2637 
Q 2206 2953 1844 2953 
Q 1484 2953 1207 2617 
Q 931 2281 931 1641 
z
" transform="scale(0.015625)"/>
       <path id="ArialMT-73" d="M 197 991 
L 753 1078 
Q 800 744 1014 566 
Q 1228 388 1613 388 
Q 2000 388 2187 545 
Q 2375 703 2375 916 
Q 2375 1106 2209 1216 
Q 2094 1291 1634 1406 
Q 1016 1563 777 1677 
Q 538 1791 414 1992 
Q 291 2194 291 2438 
Q 291 2659 392 2848 
Q 494 3038 669 3163 
Q 800 3259 1026 3326 
Q 1253 3394 1513 3394 
Q 1903 3394 2198 3281 
Q 2494 3169 2634 2976 
Q 2775 2784 2828 2463 
L 2278 2388 
Q 2241 2644 2061 2787 
Q 1881 2931 1553 2931 
Q 1166 2931 1000 2803 
Q 834 2675 834 2503 
Q 834 2394 903 2306 
Q 972 2216 1119 2156 
Q 1203 2125 1616 2013 
Q 2213 1853 2448 1751 
Q 2684 1650 2818 1456 
Q 2953 1263 2953 975 
Q 2953 694 2789 445 
Q 2625 197 2315 61 
Q 2006 -75 1616 -75 
Q 969 -75 630 194 
Q 291 463 197 991 
z
" transform="scale(0.015625)"/>
      </defs>
      <use xlink:href="#ArialMT-54"/>
      <use xlink:href="#ArialMT-69" x="57.333984"/>
      <use xlink:href="#ArialMT-6d" x="79.550781"/>
      <use xlink:href="#ArialMT-65" x="162.851562"/>
      <use xlink:href="#ArialMT-53" x="218.466797"/>
      <use xlink:href="#ArialMT-74" x="285.166016"/>
      <use xlink:href="#ArialMT-65" x="312.949219"/>
      <use xlink:href="#ArialMT-70" x="368.564453"/>
      <use xlink:href="#ArialMT-73" x="424.179688"/>
     </g>
    </g>
   </g>
   <g id="matplotlib.axis_2">
    <g id="ytick_1">
     <g id="line2d_7">
      <path d="M 53.55 115.03982 
L 348.736837 115.03982 
" clip-path="url(#p39243e6edc)" style="fill: none; stroke: #afafaf; stroke-opacity: 0.55; stroke-width: 0.4; stroke-linecap: round"/>
     </g>
     <g id="text_8">
      <!-- −20 -->
      <g style="fill: #262626" transform="translate(27.0875 118.618727) scale(0.1 -0.1)">
       <defs>
        <path id="ArialMT-2212" d="M 3381 1997 
L 356 1997 
L 356 2522 
L 3381 2522 
L 3381 1997 
z
" transform="scale(0.015625)"/>
       </defs>
       <use xlink:href="#ArialMT-2212"/>
       <use xlink:href="#ArialMT-32" x="58.398438"/>
       <use xlink:href="#ArialMT-30" x="114.013672"/>
      </g>
     </g>
    </g>
    <g id="ytick_2">
     <g id="line2d_8">
      <path d="M 53.55 87.205196 
L 348.736837 87.205196 
" clip-path="url(#p39243e6edc)" style="fill: none; stroke: #afafaf; stroke-opacity: 0.55; stroke-width: 0.4; stroke-linecap: round"/>
     </g>
     <g id="text_9">
      <!-- 0 -->
      <g style="fill: #262626" transform="translate(38.489063 90.784102) scale(0.1 -0.1)">
       <use xlink:href="#ArialMT-30"/>
      </g>
     </g>
    </g>
    <g id="ytick_3">
     <g id="line2d_9">
      <path d="M 53.55 59.370571 
L 348.736837 59.370571 
" clip-path="url(#p39243e6edc)" style="fill: none; stroke: #afafaf; stroke-opacity: 0.55; stroke-width: 0.4; stroke-linecap: round"/>
     </g>
     <g id="text_10">
      <!-- 20 -->
      <g style="fill: #262626" transform="translate(32.928125 62.949477) scale(0.1 -0.1)">
       <use xlink:href="#ArialMT-32"/>
       <use xlink:href="#ArialMT-30" x="55.615234"/>
      </g>
     </g>
    </g>
    <g id="ytick_4">
     <g id="line2d_10">
      <path d="M 53.55 31.535946 
L 348.736837 31.535946 
" clip-path="url(#p39243e6edc)" style="fill: none; stroke: #afafaf; stroke-opacity: 0.55; stroke-width: 0.4; stroke-linecap: round"/>
     </g>
     <g id="text_11">
      <!-- 40 -->
      <g style="fill: #262626" transform="translate(32.928125 35.114852) scale(0.1 -0.1)">
       <use xlink:href="#ArialMT-34"/>
       <use xlink:href="#ArialMT-30" x="55.615234"/>
      </g>
     </g>
    </g>
    <g id="text_12">
     <!-- Total Distance (Pixel) -->
     <g style="fill: #262626" transform="translate(20.772344 129.285875) rotate(-90) scale(0.11 -0.11)">
      <defs>
       <path id="ArialMT-6f" d="M 213 1659 
Q 213 2581 725 3025 
Q 1153 3394 1769 3394 
Q 2453 3394 2887 2945 
Q 3322 2497 3322 1706 
Q 3322 1066 3130 698 
Q 2938 331 2570 128 
Q 2203 -75 1769 -75 
Q 1072 -75 642 372 
Q 213 819 213 1659 
z
M 791 1659 
Q 791 1022 1069 705 
Q 1347 388 1769 388 
Q 2188 388 2466 706 
Q 2744 1025 2744 1678 
Q 2744 2294 2464 2611 
Q 2184 2928 1769 2928 
Q 1347 2928 1069 2612 
Q 791 2297 791 1659 
z
" transform="scale(0.015625)"/>
       <path id="ArialMT-61" d="M 2588 409 
Q 2275 144 1986 34 
Q 1697 -75 1366 -75 
Q 819 -75 525 192 
Q 231 459 231 875 
Q 231 1119 342 1320 
Q 453 1522 633 1644 
Q 813 1766 1038 1828 
Q 1203 1872 1538 1913 
Q 2219 1994 2541 2106 
Q 2544 2222 2544 2253 
Q 2544 2597 2384 2738 
Q 2169 2928 1744 2928 
Q 1347 2928 1158 2789 
Q 969 2650 878 2297 
L 328 2372 
Q 403 2725 575 2942 
Q 747 3159 1072 3276 
Q 1397 3394 1825 3394 
Q 2250 3394 2515 3294 
Q 2781 3194 2906 3042 
Q 3031 2891 3081 2659 
Q 3109 2516 3109 2141 
L 3109 1391 
Q 3109 606 3145 398 
Q 3181 191 3288 0 
L 2700 0 
Q 2613 175 2588 409 
z
M 2541 1666 
Q 2234 1541 1622 1453 
Q 1275 1403 1131 1340 
Q 988 1278 909 1158 
Q 831 1038 831 891 
Q 831 666 1001 516 
Q 1172 366 1500 366 
Q 1825 366 2078 508 
Q 2331 650 2450 897 
Q 2541 1088 2541 1459 
L 2541 1666 
z
" transform="scale(0.015625)"/>
       <path id="ArialMT-6c" d="M 409 0 
L 409 4581 
L 972 4581 
L 972 0 
L 409 0 
z
" transform="scale(0.015625)"/>
       <path id="ArialMT-20" transform="scale(0.015625)"/>
       <path id="ArialMT-44" d="M 494 0 
L 494 4581 
L 2072 4581 
Q 2606 4581 2888 4516 
Q 3281 4425 3559 4188 
Q 3922 3881 4101 3404 
Q 4281 2928 4281 2316 
Q 4281 1794 4159 1391 
Q 4038 988 3847 723 
Q 3656 459 3429 307 
Q 3203 156 2883 78 
Q 2563 0 2147 0 
L 494 0 
z
M 1100 541 
L 2078 541 
Q 2531 541 2789 625 
Q 3047 709 3200 863 
Q 3416 1078 3536 1442 
Q 3656 1806 3656 2325 
Q 3656 3044 3420 3430 
Q 3184 3816 2847 3947 
Q 2603 4041 2063 4041 
L 1100 4041 
L 1100 541 
z
" transform="scale(0.015625)"/>
       <path id="ArialMT-6e" d="M 422 0 
L 422 3319 
L 928 3319 
L 928 2847 
Q 1294 3394 1984 3394 
Q 2284 3394 2536 3286 
Q 2788 3178 2913 3003 
Q 3038 2828 3088 2588 
Q 3119 2431 3119 2041 
L 3119 0 
L 2556 0 
L 2556 2019 
Q 2556 2363 2490 2533 
Q 2425 2703 2258 2804 
Q 2091 2906 1866 2906 
Q 1506 2906 1245 2678 
Q 984 2450 984 1813 
L 984 0 
L 422 0 
z
" transform="scale(0.015625)"/>
       <path id="ArialMT-63" d="M 2588 1216 
L 3141 1144 
Q 3050 572 2676 248 
Q 2303 -75 1759 -75 
Q 1078 -75 664 370 
Q 250 816 250 1647 
Q 250 2184 428 2587 
Q 606 2991 970 3192 
Q 1334 3394 1763 3394 
Q 2303 3394 2647 3120 
Q 2991 2847 3088 2344 
L 2541 2259 
Q 2463 2594 2264 2762 
Q 2066 2931 1784 2931 
Q 1359 2931 1093 2626 
Q 828 2322 828 1663 
Q 828 994 1084 691 
Q 1341 388 1753 388 
Q 2084 388 2306 591 
Q 2528 794 2588 1216 
z
" transform="scale(0.015625)"/>
       <path id="ArialMT-28" d="M 1497 -1347 
Q 1031 -759 709 28 
Q 388 816 388 1659 
Q 388 2403 628 3084 
Q 909 3875 1497 4659 
L 1900 4659 
Q 1522 4009 1400 3731 
Q 1209 3300 1100 2831 
Q 966 2247 966 1656 
Q 966 153 1900 -1347 
L 1497 -1347 
z
" transform="scale(0.015625)"/>
       <path id="ArialMT-50" d="M 494 0 
L 494 4581 
L 2222 4581 
Q 2678 4581 2919 4538 
Q 3256 4481 3484 4323 
Q 3713 4166 3852 3881 
Q 3991 3597 3991 3256 
Q 3991 2672 3619 2267 
Q 3247 1863 2275 1863 
L 1100 1863 
L 1100 0 
L 494 0 
z
M 1100 2403 
L 2284 2403 
Q 2872 2403 3119 2622 
Q 3366 2841 3366 3238 
Q 3366 3525 3220 3729 
Q 3075 3934 2838 4000 
Q 2684 4041 2272 4041 
L 1100 4041 
L 1100 2403 
z
" transform="scale(0.015625)"/>
       <path id="ArialMT-78" d="M 47 0 
L 1259 1725 
L 138 3319 
L 841 3319 
L 1350 2541 
Q 1494 2319 1581 2169 
Q 1719 2375 1834 2534 
L 2394 3319 
L 3066 3319 
L 1919 1756 
L 3153 0 
L 2463 0 
L 1781 1031 
L 1600 1309 
L 728 0 
L 47 0 
z
" transform="scale(0.015625)"/>
       <path id="ArialMT-29" d="M 791 -1347 
L 388 -1347 
Q 1322 153 1322 1656 
Q 1322 2244 1188 2822 
Q 1081 3291 891 3722 
Q 769 4003 388 4659 
L 791 4659 
Q 1378 3875 1659 3084 
Q 1900 2403 1900 1659 
Q 1900 816 1576 28 
Q 1253 -759 791 -1347 
z
" transform="scale(0.015625)"/>
      </defs>
      <use xlink:href="#ArialMT-54"/>
      <use xlink:href="#ArialMT-6f" x="49.958984"/>
      <use xlink:href="#ArialMT-74" x="105.574219"/>
      <use xlink:href="#ArialMT-61" x="133.357422"/>
      <use xlink:href="#ArialMT-6c" x="188.972656"/>
      <use xlink:href="#ArialMT-20" x="211.189453"/>
      <use xlink:href="#ArialMT-44" x="238.972656"/>
      <use xlink:href="#ArialMT-69" x="311.189453"/>
      <use xlink:href="#ArialMT-73" x="333.40625"/>
      <use xlink:href="#ArialMT-74" x="383.40625"/>
      <use xlink:href="#ArialMT-61" x="411.189453"/>
      <use xlink:href="#ArialMT-6e" x="466.804688"/>
      <use xlink:href="#ArialMT-63" x="522.419922"/>
      <use xlink:href="#ArialMT-65" x="572.419922"/>
      <use xlink:href="#ArialMT-20" x="628.035156"/>
      <use xlink:href="#ArialMT-28" x="655.818359"/>
      <use xlink:href="#ArialMT-50" x="689.119141"/>
      <use xlink:href="#ArialMT-69" x="755.818359"/>
      <use xlink:href="#ArialMT-78" x="778.035156"/>
      <use xlink:href="#ArialMT-65" x="828.035156"/>
      <use xlink:href="#ArialMT-6c" x="883.650391"/>
      <use xlink:href="#ArialMT-29" x="905.867188"/>
     </g>
    </g>
   </g>
   <g id="PolyCollection_1">
    <defs>
     <path id="me2385d090b" d="M 66.967583 -135.674576 
L 66.967583 -136.390788 
L 73.848396 -121.545645 
L 80.729208 -164.843952 
L 87.61002 -147.524634 
L 94.490832 -130.205316 
L 101.371644 -130.205316 
L 108.252456 -156.802843 
L 115.133268 -177.214897 
L 122.01408 -153.710106 
L 128.894892 -205.049523 
L 135.775704 -128.349679 
L 142.656516 -132.060953 
L 149.537328 -151.854469 
L 156.41814 -182.16327 
L 163.298952 -149.998832 
L 170.179764 -140.720624 
L 177.060576 -162.369777 
L 183.941388 -141.957699 
L 190.8222 -177.833458 
L 197.703012 -149.380271 
L 204.583824 -124.019844 
L 211.464636 -148.761733 
L 218.345448 -177.214897 
L 225.22626 -151.854469 
L 232.107072 -164.843952 
L 238.987885 -188.967304 
L 245.868697 -172.885061 
L 252.749509 -142.576261 
L 259.630321 -161.132678 
L 266.511133 -185.256006 
L 273.391945 -134.535151 
L 280.272757 -182.781831 
L 287.153569 -128.349679 
L 294.034381 -159.895579 
L 300.915193 -128.349679 
L 307.796005 -155.565743 
L 314.676817 -122.782744 
L 321.557629 -151.854469 
L 328.438441 -130.205316 
L 335.319253 -154.947206 
L 335.319253 -156.1843 
L 335.319253 -156.1843 
L 328.438441 -128.838001 
L 321.557629 -152.766013 
L 314.676817 -120.634107 
L 307.796005 -156.867947 
L 300.915193 -126.787034 
L 294.034381 -161.653555 
L 287.153569 -126.787034 
L 280.272757 -186.948887 
L 273.391945 -133.623609 
L 266.511133 -189.683501 
L 259.630321 -163.020875 
L 252.749509 -142.511151 
L 245.868697 -176.010352 
L 238.987885 -193.785462 
L 232.107072 -167.12281 
L 225.22626 -152.766013 
L 218.345448 -180.795959 
L 211.464636 -149.347726 
L 204.583824 -122.001427 
L 197.703012 -150.031373 
L 190.8222 -181.479632 
L 183.941388 -141.827478 
L 177.060576 -164.388195 
L 170.179764 -140.460184 
L 163.298952 -150.715046 
L 156.41814 -186.265214 
L 149.537328 -152.766013 
L 142.656516 -130.888969 
L 135.775704 -126.787034 
L 128.894892 -211.560545 
L 122.01408 -154.81698 
L 115.133268 -180.795959 
L 108.252456 -158.235268 
L 101.371644 -128.838001 
L 94.490832 -128.838001 
L 87.61002 -147.980405 
L 80.729208 -167.12281 
L 73.848396 -119.266786 
L 66.967583 -135.674576 
z
" style="stroke: #ef476f; stroke-opacity: 0.18"/>
    </defs>
    <g clip-path="url(#p39243e6edc)">
     <use xlink:href="#me2385d090b" x="0" y="230.4" style="fill: #ef476f; fill-opacity: 0.18; stroke: #ef476f; stroke-opacity: 0.18"/>
    </g>
   </g>
   <g id="PolyCollection_2">
    <defs>
     <path id="m1478a0e6a9" d="M 66.967583 -128.668098 
L 66.967583 -130.051594 
L 73.848396 -147.575899 
L 80.729208 -142.568941 
L 87.61002 -120.663583 
L 94.490832 -138.187888 
L 101.371644 -119.411868 
L 108.252456 -123.79292 
L 115.133268 -146.950017 
L 122.01408 -167.603635 
L 128.894892 -136.310267 
L 135.775704 -140.691343 
L 142.656516 -167.603635 
L 149.537328 -128.799878 
L 156.41814 -133.18093 
L 163.298952 -138.187888 
L 170.179764 -122.541204 
L 177.060576 -148.827614 
L 183.941388 -153.20869 
L 190.8222 -158.215625 
L 197.703012 -136.310267 
L 204.583824 -141.317225 
L 211.464636 -146.950017 
L 218.345448 -141.943083 
L 225.22626 -140.691343 
L 232.107072 -140.691343 
L 238.987885 -149.453496 
L 245.868697 -141.317225 
L 252.749509 -138.813746 
L 259.630321 -138.813746 
L 266.511133 -144.446562 
L 273.391945 -146.324159 
L 280.272757 -138.813746 
L 287.153569 -144.446562 
L 294.034381 -140.065486 
L 300.915193 -136.936149 
L 307.796005 -145.698277 
L 314.676817 -136.936149 
L 321.557629 -142.568941 
L 328.438441 -147.575899 
L 335.319253 -141.943083 
L 335.319253 -141.811323 
L 335.319253 -141.811323 
L 328.438441 -148.037066 
L 321.557629 -142.50306 
L 314.676817 -136.277343 
L 307.796005 -145.961801 
L 300.915193 -136.277343 
L 294.034381 -139.736084 
L 287.153569 -144.578326 
L 280.272757 -138.352582 
L 273.391945 -146.653565 
L 266.511133 -144.578326 
L 259.630321 -138.352582 
L 252.749509 -138.352582 
L 245.868697 -141.119585 
L 238.987885 -150.112306 
L 232.107072 -140.427821 
L 225.22626 -140.427821 
L 218.345448 -141.811323 
L 211.464636 -147.345302 
L 204.583824 -141.119585 
L 197.703012 -135.585579 
L 190.8222 -159.796763 
L 183.941388 -154.262784 
L 177.060576 -149.420542 
L 170.179764 -120.367141 
L 163.298952 -137.660845 
L 156.41814 -132.126838 
L 149.537328 -127.284623 
L 142.656516 -170.172985 
L 135.775704 -140.427821 
L 128.894892 -135.585579 
L 122.01408 -170.172985 
L 115.133268 -147.345302 
L 108.252456 -121.750616 
L 101.371644 -116.908401 
L 94.490832 -137.660845 
L 87.61002 -118.291876 
L 80.729208 -142.50306 
L 73.848396 -148.037066 
L 66.967583 -128.668098 
z
" style="stroke: #8266ff; stroke-opacity: 0.18"/>
    </defs>
    <g clip-path="url(#p39243e6edc)">
     <use xlink:href="#m1478a0e6a9" x="0" y="230.4" style="fill: #8266ff; fill-opacity: 0.18; stroke: #8266ff; stroke-opacity: 0.18"/>
    </g>
   </g>
   <g id="PolyCollection_3">
    <defs>
     <path id="mf3d12008b3" d="M 66.967583 -136.358223 
L 66.967583 -137.009326 
L 73.848396 -101.133544 
L 80.729208 -136.390788 
L 87.61002 -98.659393 
L 94.490832 -137.627888 
L 101.371644 -115.360173 
L 108.252456 -137.009326 
L 115.133268 -163.606853 
L 122.01408 -148.143172 
L 128.894892 -138.246425 
L 135.775704 -164.843952 
L 142.656516 -132.679491 
L 149.537328 -130.823854 
L 156.41814 -155.565743 
L 163.298952 -143.81336 
L 170.179764 -157.42138 
L 177.060576 -128.349679 
L 183.941388 -154.328644 
L 190.8222 -138.246425 
L 197.703012 -134.535151 
L 204.583824 -154.328644 
L 211.464636 -136.390788 
L 218.345448 -158.65848 
L 225.22626 -136.390788 
L 232.107072 -153.091569 
L 238.987885 -137.627888 
L 245.868697 -153.091569 
L 252.749509 -138.864963 
L 259.630321 -156.802843 
L 266.511133 -143.194799 
L 273.391945 -154.947206 
L 280.272757 -140.720624 
L 287.153569 -156.802843 
L 294.034381 -137.627888 
L 300.915193 -149.380271 
L 307.796005 -136.390788 
L 314.676817 -153.710106 
L 321.557629 -138.246425 
L 328.438441 -149.998832 
L 335.319253 -138.246425 
L 335.319253 -137.725543 
L 335.319253 -137.725543 
L 328.438441 -150.715046 
L 321.557629 -137.725543 
L 314.676817 -154.81698 
L 307.796005 -135.674576 
L 300.915193 -150.031373 
L 294.034381 -137.041896 
L 287.153569 -158.235268 
L 280.272757 -140.460184 
L 273.391945 -156.1843 
L 266.511133 -143.194798 
L 259.630321 -158.235268 
L 252.749509 -138.40919 
L 245.868697 -154.133333 
L 238.987885 -137.041896 
L 232.107072 -154.133333 
L 225.22626 -135.674576 
L 218.345448 -160.286235 
L 211.464636 -135.674576 
L 204.583824 -155.500627 
L 197.703012 -133.623609 
L 190.8222 -137.725543 
L 183.941388 -155.500627 
L 177.060576 -126.787034 
L 170.179764 -158.918915 
L 163.298952 -143.878471 
L 156.41814 -156.867947 
L 149.537328 -129.521648 
L 142.656516 -131.572616 
L 135.775704 -167.12281 
L 128.894892 -137.725543 
L 122.01408 -148.664053 
L 115.133268 -165.755489 
L 108.252456 -136.358223 
L 101.371644 -112.430212 
L 94.490832 -137.041896 
L 87.61002 -93.971455 
L 80.729208 -135.674576 
L 73.848396 -96.706043 
L 66.967583 -136.358223 
z
" style="stroke: #06d6a0; stroke-opacity: 0.18"/>
    </defs>
    <g clip-path="url(#p39243e6edc)">
     <use xlink:href="#mf3d12008b3" x="0" y="230.4" style="fill: #06d6a0; fill-opacity: 0.18; stroke: #06d6a0; stroke-opacity: 0.18"/>
    </g>
   </g>
   <g id="line2d_11">
    <path d="M 66.967583 94.367318 
L 73.848396 109.993784 
L 80.729208 64.416619 
L 87.61002 82.64748 
L 94.490832 100.878341 
L 101.371644 100.878341 
L 108.252456 72.880945 
L 115.133268 51.394572 
L 122.01408 76.136457 
L 128.894892 22.094966 
L 135.775704 102.831643 
L 142.656516 98.925039 
L 149.537328 78.089759 
L 156.41814 46.185758 
L 163.298952 80.043061 
L 170.179764 89.809596 
L 177.060576 67.021014 
L 183.941388 88.507411 
L 190.8222 50.743455 
L 197.703012 80.694178 
L 204.583824 107.389365 
L 211.464636 81.345271 
L 218.345448 51.394572 
L 225.22626 78.089759 
L 232.107072 64.416619 
L 238.987885 39.023617 
L 245.868697 55.952294 
L 252.749509 87.856294 
L 259.630321 68.323223 
L 266.511133 42.930246 
L 273.391945 96.32062 
L 280.272757 45.534641 
L 287.153569 102.831643 
L 294.034381 69.625433 
L 300.915193 102.831643 
L 307.796005 74.183155 
L 314.676817 108.691575 
L 321.557629 78.089759 
L 328.438441 100.878341 
L 335.319253 74.834247 
" clip-path="url(#p39243e6edc)" style="fill: none; stroke: #ef476f; stroke-width: 2; stroke-linecap: round"/>
   </g>
   <g id="line2d_12">
    <path d="M 66.967583 101.040154 
L 73.848396 82.593517 
L 80.729208 87.863999 
L 87.61002 110.92227 
L 94.490832 92.475634 
L 101.371644 112.239866 
L 108.252456 107.628232 
L 115.133268 83.25234 
L 122.01408 61.51169 
L 128.894892 94.452077 
L 135.775704 89.840418 
L 142.656516 61.51169 
L 149.537328 102.35775 
L 156.41814 97.746116 
L 163.298952 92.475634 
L 170.179764 108.945827 
L 177.060576 81.275922 
L 183.941388 76.664263 
L 190.8222 71.393806 
L 197.703012 94.452077 
L 204.583824 89.181595 
L 211.464636 83.25234 
L 218.345448 88.522797 
L 225.22626 89.840418 
L 232.107072 89.840418 
L 238.987885 80.617099 
L 245.868697 89.181595 
L 252.749509 91.816836 
L 259.630321 91.816836 
L 266.511133 85.887556 
L 273.391945 83.911138 
L 280.272757 91.816836 
L 287.153569 85.887556 
L 294.034381 90.499215 
L 300.915193 93.793254 
L 307.796005 84.569961 
L 314.676817 93.793254 
L 321.557629 87.863999 
L 328.438441 82.593517 
L 335.319253 88.522797 
" clip-path="url(#p39243e6edc)" style="fill: none; stroke: #8266ff; stroke-width: 2; stroke-linecap: round"/>
   </g>
   <g id="line2d_13">
    <path d="M 66.967583 93.716225 
L 73.848396 131.480207 
L 80.729208 94.367318 
L 87.61002 134.084576 
L 94.490832 93.065108 
L 101.371644 116.504808 
L 108.252456 93.716225 
L 115.133268 65.718829 
L 122.01408 81.996388 
L 128.894892 92.414016 
L 135.775704 64.416619 
L 142.656516 98.273947 
L 149.537328 100.227249 
L 156.41814 74.183155 
L 163.298952 86.554084 
L 170.179764 72.229852 
L 177.060576 102.831643 
L 183.941388 75.485364 
L 190.8222 92.414016 
L 197.703012 96.32062 
L 204.583824 75.485364 
L 211.464636 94.367318 
L 218.345448 70.927643 
L 225.22626 94.367318 
L 232.107072 76.787549 
L 238.987885 93.065108 
L 245.868697 76.787549 
L 252.749509 91.762923 
L 259.630321 72.880945 
L 266.511133 87.205202 
L 273.391945 74.834247 
L 280.272757 89.809596 
L 287.153569 72.880945 
L 294.034381 93.065108 
L 300.915193 80.694178 
L 307.796005 94.367318 
L 314.676817 76.136457 
L 321.557629 92.414016 
L 328.438441 80.043061 
L 335.319253 92.414016 
" clip-path="url(#p39243e6edc)" style="fill: none; stroke: #06d6a0; stroke-width: 2; stroke-linecap: round"/>
   </g>
   <g id="patch_3">
    <path d="M 53.55 142.308 
L 53.55 12.96 
" style="fill: none; stroke: #cccccc; stroke-width: 1.25; stroke-linejoin: miter; stroke-linecap: square"/>
   </g>
   <g id="patch_4">
    <path d="M 53.55 142.308 
L 348.736837 142.308 
" style="fill: none; stroke: #cccccc; stroke-width: 1.25; stroke-linejoin: miter; stroke-linecap: square"/>
   </g>
  </g>
  <g id="axes_2">
   <g id="patch_5">
    <path d="M 411 142.308 
L 706.186837 142.308 
L 706.186837 12.96 
L 411 12.96 
z
" style="fill: #ffffff"/>
   </g>
   <g id="matplotlib.axis_3">
    <g id="xtick_7">
     <g id="line2d_14">
      <path d="M 424.417583 142.308 
L 424.417583 12.96 
" clip-path="url(#p53afbf56e2)" style="fill: none; stroke: #afafaf; stroke-opacity: 0.55; stroke-width: 0.4; stroke-linecap: round"/>
     </g>
     <g id="text_13">
      <!-- 0 -->
      <g style="fill: #262626" transform="translate(421.637115 158.965813) scale(0.1 -0.1)">
       <use xlink:href="#ArialMT-30"/>
      </g>
     </g>
    </g>
    <g id="xtick_8">
     <g id="line2d_15">
      <path d="M 478.087917 142.308 
L 478.087917 12.96 
" clip-path="url(#p53afbf56e2)" style="fill: none; stroke: #afafaf; stroke-opacity: 0.55; stroke-width: 0.4; stroke-linecap: round"/>
     </g>
     <g id="text_14">
      <!-- 20000 -->
      <g style="fill: #262626" transform="translate(464.185574 158.965813) scale(0.1 -0.1)">
       <use xlink:href="#ArialMT-32"/>
       <use xlink:href="#ArialMT-30" x="55.615234"/>
       <use xlink:href="#ArialMT-30" x="111.230469"/>
       <use xlink:href="#ArialMT-30" x="166.845703"/>
       <use xlink:href="#ArialMT-30" x="222.460938"/>
      </g>
     </g>
    </g>
    <g id="xtick_9">
     <g id="line2d_16">
      <path d="M 531.758251 142.308 
L 531.758251 12.96 
" clip-path="url(#p53afbf56e2)" style="fill: none; stroke: #afafaf; stroke-opacity: 0.55; stroke-width: 0.4; stroke-linecap: round"/>
     </g>
     <g id="text_15">
      <!-- 40000 -->
      <g style="fill: #262626" transform="translate(517.855908 158.965813) scale(0.1 -0.1)">
       <use xlink:href="#ArialMT-34"/>
       <use xlink:href="#ArialMT-30" x="55.615234"/>
       <use xlink:href="#ArialMT-30" x="111.230469"/>
       <use xlink:href="#ArialMT-30" x="166.845703"/>
       <use xlink:href="#ArialMT-30" x="222.460938"/>
      </g>
     </g>
    </g>
    <g id="xtick_10">
     <g id="line2d_17">
      <path d="M 585.428585 142.308 
L 585.428585 12.96 
" clip-path="url(#p53afbf56e2)" style="fill: none; stroke: #afafaf; stroke-opacity: 0.55; stroke-width: 0.4; stroke-linecap: round"/>
     </g>
     <g id="text_16">
      <!-- 60000 -->
      <g style="fill: #262626" transform="translate(571.526241 158.965813) scale(0.1 -0.1)">
       <use xlink:href="#ArialMT-36"/>
       <use xlink:href="#ArialMT-30" x="55.615234"/>
       <use xlink:href="#ArialMT-30" x="111.230469"/>
       <use xlink:href="#ArialMT-30" x="166.845703"/>
       <use xlink:href="#ArialMT-30" x="222.460938"/>
      </g>
     </g>
    </g>
    <g id="xtick_11">
     <g id="line2d_18">
      <path d="M 639.098919 142.308 
L 639.098919 12.96 
" clip-path="url(#p53afbf56e2)" style="fill: none; stroke: #afafaf; stroke-opacity: 0.55; stroke-width: 0.4; stroke-linecap: round"/>
     </g>
     <g id="text_17">
      <!-- 80000 -->
      <g style="fill: #262626" transform="translate(625.196575 158.965813) scale(0.1 -0.1)">
       <use xlink:href="#ArialMT-38"/>
       <use xlink:href="#ArialMT-30" x="55.615234"/>
       <use xlink:href="#ArialMT-30" x="111.230469"/>
       <use xlink:href="#ArialMT-30" x="166.845703"/>
       <use xlink:href="#ArialMT-30" x="222.460938"/>
      </g>
     </g>
    </g>
    <g id="xtick_12">
     <g id="line2d_19">
      <path d="M 692.769253 142.308 
L 692.769253 12.96 
" clip-path="url(#p53afbf56e2)" style="fill: none; stroke: #afafaf; stroke-opacity: 0.55; stroke-width: 0.4; stroke-linecap: round"/>
     </g>
     <g id="text_18">
      <!-- 100000 -->
      <g style="fill: #262626" transform="translate(676.086441 158.965813) scale(0.1 -0.1)">
       <use xlink:href="#ArialMT-31"/>
       <use xlink:href="#ArialMT-30" x="55.615234"/>
       <use xlink:href="#ArialMT-30" x="111.230469"/>
       <use xlink:href="#ArialMT-30" x="166.845703"/>
       <use xlink:href="#ArialMT-30" x="222.460938"/>
       <use xlink:href="#ArialMT-30" x="278.076172"/>
      </g>
     </g>
    </g>
    <g id="text_19">
     <!-- TimeSteps -->
     <g style="fill: #262626" transform="translate(532.514825 172.960969) scale(0.11 -0.11)">
      <use xlink:href="#ArialMT-54"/>
      <use xlink:href="#ArialMT-69" x="57.333984"/>
      <use xlink:href="#ArialMT-6d" x="79.550781"/>
      <use xlink:href="#ArialMT-65" x="162.851562"/>
      <use xlink:href="#ArialMT-53" x="218.466797"/>
      <use xlink:href="#ArialMT-74" x="285.166016"/>
      <use xlink:href="#ArialMT-65" x="312.949219"/>
      <use xlink:href="#ArialMT-70" x="368.564453"/>
      <use xlink:href="#ArialMT-73" x="424.179688"/>
     </g>
    </g>
   </g>
   <g id="matplotlib.axis_4">
    <g id="ytick_5">
     <g id="line2d_20">
      <path d="M 411 112.725126 
L 706.186837 112.725126 
" clip-path="url(#p53afbf56e2)" style="fill: none; stroke: #afafaf; stroke-opacity: 0.55; stroke-width: 0.4; stroke-linecap: round"/>
     </g>
     <g id="text_20">
      <!-- 1000 -->
      <g style="fill: #262626" transform="translate(379.25625 116.304032) scale(0.1 -0.1)">
       <use xlink:href="#ArialMT-31"/>
       <use xlink:href="#ArialMT-30" x="55.615234"/>
       <use xlink:href="#ArialMT-30" x="111.230469"/>
       <use xlink:href="#ArialMT-30" x="166.845703"/>
      </g>
     </g>
    </g>
    <g id="ytick_6">
     <g id="line2d_21">
      <path d="M 411 83.016842 
L 706.186837 83.016842 
" clip-path="url(#p53afbf56e2)" style="fill: none; stroke: #afafaf; stroke-opacity: 0.55; stroke-width: 0.4; stroke-linecap: round"/>
     </g>
     <g id="text_21">
      <!-- 2000 -->
      <g style="fill: #262626" transform="translate(379.25625 86.595748) scale(0.1 -0.1)">
       <use xlink:href="#ArialMT-32"/>
       <use xlink:href="#ArialMT-30" x="55.615234"/>
       <use xlink:href="#ArialMT-30" x="111.230469"/>
       <use xlink:href="#ArialMT-30" x="166.845703"/>
      </g>
     </g>
    </g>
    <g id="ytick_7">
     <g id="line2d_22">
      <path d="M 411 53.308557 
L 706.186837 53.308557 
" clip-path="url(#p53afbf56e2)" style="fill: none; stroke: #afafaf; stroke-opacity: 0.55; stroke-width: 0.4; stroke-linecap: round"/>
     </g>
     <g id="text_22">
      <!-- 3000 -->
      <g style="fill: #262626" transform="translate(379.25625 56.887464) scale(0.1 -0.1)">
       <defs>
        <path id="ArialMT-33" d="M 269 1209 
L 831 1284 
Q 928 806 1161 595 
Q 1394 384 1728 384 
Q 2125 384 2398 659 
Q 2672 934 2672 1341 
Q 2672 1728 2419 1979 
Q 2166 2231 1775 2231 
Q 1616 2231 1378 2169 
L 1441 2663 
Q 1497 2656 1531 2656 
Q 1891 2656 2178 2843 
Q 2466 3031 2466 3422 
Q 2466 3731 2256 3934 
Q 2047 4138 1716 4138 
Q 1388 4138 1169 3931 
Q 950 3725 888 3313 
L 325 3413 
Q 428 3978 793 4289 
Q 1159 4600 1703 4600 
Q 2078 4600 2393 4439 
Q 2709 4278 2876 4000 
Q 3044 3722 3044 3409 
Q 3044 3113 2884 2869 
Q 2725 2625 2413 2481 
Q 2819 2388 3044 2092 
Q 3269 1797 3269 1353 
Q 3269 753 2831 336 
Q 2394 -81 1725 -81 
Q 1122 -81 723 278 
Q 325 638 269 1209 
z
" transform="scale(0.015625)"/>
       </defs>
       <use xlink:href="#ArialMT-33"/>
       <use xlink:href="#ArialMT-30" x="55.615234"/>
       <use xlink:href="#ArialMT-30" x="111.230469"/>
       <use xlink:href="#ArialMT-30" x="166.845703"/>
      </g>
     </g>
    </g>
    <g id="ytick_8">
     <g id="line2d_23">
      <path d="M 411 23.600273 
L 706.186837 23.600273 
" clip-path="url(#p53afbf56e2)" style="fill: none; stroke: #afafaf; stroke-opacity: 0.55; stroke-width: 0.4; stroke-linecap: round"/>
     </g>
     <g id="text_23">
      <!-- 4000 -->
      <g style="fill: #262626" transform="translate(379.25625 27.179179) scale(0.1 -0.1)">
       <use xlink:href="#ArialMT-34"/>
       <use xlink:href="#ArialMT-30" x="55.615234"/>
       <use xlink:href="#ArialMT-30" x="111.230469"/>
       <use xlink:href="#ArialMT-30" x="166.845703"/>
      </g>
     </g>
    </g>
    <g id="text_24">
     <!-- Total Return -->
     <g style="fill: #262626" transform="translate(373.07 107.283297) rotate(-90) scale(0.11 -0.11)">
      <defs>
       <path id="ArialMT-52" d="M 503 0 
L 503 4581 
L 2534 4581 
Q 3147 4581 3465 4457 
Q 3784 4334 3975 4021 
Q 4166 3709 4166 3331 
Q 4166 2844 3850 2509 
Q 3534 2175 2875 2084 
Q 3116 1969 3241 1856 
Q 3506 1613 3744 1247 
L 4541 0 
L 3778 0 
L 3172 953 
Q 2906 1366 2734 1584 
Q 2563 1803 2427 1890 
Q 2291 1978 2150 2013 
Q 2047 2034 1813 2034 
L 1109 2034 
L 1109 0 
L 503 0 
z
M 1109 2559 
L 2413 2559 
Q 2828 2559 3062 2645 
Q 3297 2731 3419 2920 
Q 3541 3109 3541 3331 
Q 3541 3656 3305 3865 
Q 3069 4075 2559 4075 
L 1109 4075 
L 1109 2559 
z
" transform="scale(0.015625)"/>
       <path id="ArialMT-75" d="M 2597 0 
L 2597 488 
Q 2209 -75 1544 -75 
Q 1250 -75 995 37 
Q 741 150 617 320 
Q 494 491 444 738 
Q 409 903 409 1263 
L 409 3319 
L 972 3319 
L 972 1478 
Q 972 1038 1006 884 
Q 1059 663 1231 536 
Q 1403 409 1656 409 
Q 1909 409 2131 539 
Q 2353 669 2445 892 
Q 2538 1116 2538 1541 
L 2538 3319 
L 3100 3319 
L 3100 0 
L 2597 0 
z
" transform="scale(0.015625)"/>
       <path id="ArialMT-72" d="M 416 0 
L 416 3319 
L 922 3319 
L 922 2816 
Q 1116 3169 1280 3281 
Q 1444 3394 1641 3394 
Q 1925 3394 2219 3213 
L 2025 2691 
Q 1819 2813 1613 2813 
Q 1428 2813 1281 2702 
Q 1134 2591 1072 2394 
Q 978 2094 978 1738 
L 978 0 
L 416 0 
z
" transform="scale(0.015625)"/>
      </defs>
      <use xlink:href="#ArialMT-54"/>
      <use xlink:href="#ArialMT-6f" x="49.958984"/>
      <use xlink:href="#ArialMT-74" x="105.574219"/>
      <use xlink:href="#ArialMT-61" x="133.357422"/>
      <use xlink:href="#ArialMT-6c" x="188.972656"/>
      <use xlink:href="#ArialMT-20" x="211.189453"/>
      <use xlink:href="#ArialMT-52" x="238.972656"/>
      <use xlink:href="#ArialMT-65" x="311.189453"/>
      <use xlink:href="#ArialMT-74" x="366.804688"/>
      <use xlink:href="#ArialMT-75" x="394.587891"/>
      <use xlink:href="#ArialMT-72" x="450.203125"/>
      <use xlink:href="#ArialMT-6e" x="483.503906"/>
     </g>
    </g>
   </g>
   <g id="PolyCollection_4">
    <defs>
     <path id="me773a11b99" d="M 424.417583 -94.603546 
L 424.417583 -93.971455 
L 431.298396 -97.574399 
L 438.179208 -101.17732 
L 445.06002 -102.078047 
L 451.940832 -101.17732 
L 458.821644 -97.574399 
L 465.702456 -99.075615 
L 472.583268 -105.680968 
L 479.46408 -115.889231 
L 486.344892 -125.797255 
L 493.225704 -134.504314 
L 500.106516 -142.610883 
L 506.987328 -153.719885 
L 513.86814 -154.020124 
L 520.748952 -157.923284 
L 527.629764 -163.327659 
L 534.510576 -170.533502 
L 541.391388 -176.238128 
L 548.2722 -179.540799 
L 555.153012 -181.642503 
L 562.033824 -182.543231 
L 568.914636 -184.34468 
L 575.795448 -184.34468 
L 582.67626 -185.545663 
L 589.557072 -185.545663 
L 596.437885 -185.545663 
L 603.318697 -185.545663 
L 610.199509 -184.94518 
L 617.080321 -184.94518 
L 623.961133 -184.644936 
L 630.841945 -184.644936 
L 637.722757 -184.34468 
L 644.603569 -184.34468 
L 651.484381 -183.14372 
L 658.365193 -182.843464 
L 665.246005 -182.843464 
L 672.126817 -181.642503 
L 679.007629 -181.342248 
L 685.888441 -179.540799 
L 692.769253 -179.240554 
L 692.769253 -188.84834 
L 692.769253 -188.84834 
L 685.888441 -189.180189 
L 679.007629 -191.171264 
L 672.126817 -191.503126 
L 665.246005 -192.830503 
L 658.365193 -192.830503 
L 651.484381 -193.162365 
L 644.603569 -194.489742 
L 637.722757 -194.489742 
L 630.841945 -194.821604 
L 623.961133 -194.821604 
L 617.080321 -195.153453 
L 610.199509 -195.153453 
L 603.318697 -195.817145 
L 596.437885 -195.817145 
L 589.557072 -195.817145 
L 582.67626 -195.817145 
L 575.795448 -194.489742 
L 568.914636 -194.489742 
L 562.033824 -192.498667 
L 555.153012 -191.503126 
L 548.2722 -189.180189 
L 541.391388 -185.529868 
L 534.510576 -179.224755 
L 527.629764 -171.260404 
L 520.748952 -165.287146 
L 513.86814 -160.973127 
L 506.987328 -160.641285 
L 500.106516 -148.362914 
L 493.225704 -139.403022 
L 486.344892 -129.779431 
L 479.46408 -118.828456 
L 472.583268 -107.545639 
L 465.702456 -100.244986 
L 458.821644 -98.585747 
L 451.940832 -102.567923 
L 445.06002 -103.563464 
L 438.179208 -102.567923 
L 431.298396 -98.585747 
L 424.417583 -94.603546 
z
" style="stroke: #ef476f; stroke-opacity: 0.18"/>
    </defs>
    <g clip-path="url(#p53afbf56e2)">
     <use xlink:href="#me773a11b99" x="0" y="230.4" style="fill: #ef476f; fill-opacity: 0.18; stroke: #ef476f; stroke-opacity: 0.18"/>
    </g>
   </g>
   <g id="PolyCollection_5">
    <defs>
     <path id="ma3b763e9db" d="M 424.417583 -99.979689 
L 424.417583 -98.835584 
L 431.298396 -96.597846 
L 438.179208 -95.958503 
L 445.06002 -98.835584 
L 451.940832 -102.991377 
L 458.821644 -105.229115 
L 465.702456 -111.942329 
L 472.583268 -121.532625 
L 479.46408 -131.762264 
L 486.344892 -142.311599 
L 493.225704 -157.65607 
L 500.106516 -171.082486 
L 506.987328 -177.476017 
L 513.86814 -172.361185 
L 520.748952 -164.688956 
L 527.629764 -159.893808 
L 534.510576 -159.574124 
L 541.391388 -158.934769 
L 548.2722 -165.328299 
L 555.153012 -164.0496 
L 562.033824 -159.254453 
L 568.914636 -158.934769 
L 575.795448 -165.647983 
L 582.67626 -170.123447 
L 589.557072 -172.041514 
L 596.437885 -173.959568 
L 603.318697 -175.877634 
L 610.199509 -177.476017 
L 617.080321 -179.713743 
L 623.961133 -179.713743 
L 630.841945 -183.230192 
L 637.722757 -185.148252 
L 644.603569 -183.230192 
L 651.484381 -185.467924 
L 658.365193 -185.787602 
L 665.246005 -185.787602 
L 672.126817 -186.746635 
L 679.007629 -185.467924 
L 685.888441 -185.787602 
L 692.769253 -187.157639 
L 692.769253 -197.598802 
L 692.769253 -197.598802 
L 685.888441 -196.08455 
L 679.007629 -195.731222 
L 672.126817 -197.144534 
L 665.246005 -196.08455 
L 658.365193 -196.08455 
L 651.484381 -195.731222 
L 644.603569 -193.25794 
L 637.722757 -195.377901 
L 630.841945 -193.25794 
L 623.961133 -189.371338 
L 617.080321 -189.371338 
L 610.199509 -186.898062 
L 603.318697 -185.131428 
L 596.437885 -183.01146 
L 589.557072 -180.891506 
L 582.67626 -178.771537 
L 575.795448 -173.824972 
L 568.914636 -166.405103 
L 562.033824 -166.758438 
L 555.153012 -172.058338 
L 548.2722 -173.471637 
L 541.391388 -166.405103 
L 534.510576 -167.111759 
L 527.629764 -167.465094 
L 520.748952 -172.764994 
L 513.86814 -181.244827 
L 506.987328 -186.898062 
L 500.106516 -179.831528 
L 493.225704 -164.991805 
L 486.344892 -148.032126 
L 479.46408 -136.372335 
L 472.583268 -125.065892 
L 465.702456 -114.466091 
L 458.821644 -107.046223 
L 451.940832 -104.572933 
L 445.06002 -99.979689 
L 438.179208 -96.799757 
L 431.298396 -97.5064 
L 424.417583 -99.979689 
z
" style="stroke: #8266ff; stroke-opacity: 0.18"/>
    </defs>
    <g clip-path="url(#p53afbf56e2)">
     <use xlink:href="#ma3b763e9db" x="0" y="230.4" style="fill: #8266ff; fill-opacity: 0.18; stroke: #8266ff; stroke-opacity: 0.18"/>
    </g>
   </g>
   <g id="PolyCollection_6">
    <defs>
     <path id="mc1e4d12b6e" d="M 424.417583 -102.530239 
L 424.417583 -101.143224 
L 431.298396 -102.211568 
L 438.179208 -100.074854 
L 445.06002 -99.00647 
L 451.940832 -98.650323 
L 458.821644 -97.938099 
L 465.702456 -99.00647 
L 472.583268 -104.348336 
L 479.46408 -120.01779 
L 486.344892 -139.960781 
L 493.225704 -157.410885 
L 500.106516 -176.64161 
L 506.987328 -187.681463 
L 513.86814 -195.516203 
L 520.748952 -199.789693 
L 527.629764 -192.311078 
L 534.510576 -181.983477 
L 541.391388 -168.450737 
L 548.2722 -155.274143 
L 555.153012 -147.439403 
L 562.033824 -151.000647 
L 568.914636 -161.684381 
L 575.795448 -170.943611 
L 582.67626 -173.436485 
L 589.557072 -173.080366 
L 596.437885 -169.87524 
L 603.318697 -173.436485 
L 610.199509 -175.929359 
L 617.080321 -179.490603 
L 623.961133 -183.407967 
L 630.841945 -186.256959 
L 637.722757 -188.393714 
L 644.603569 -190.174337 
L 651.484381 -193.023329 
L 658.365193 -195.872329 
L 665.246005 -196.228448 
L 672.126817 -196.940686 
L 679.007629 -196.228448 
L 685.888441 -197.296825 
L 692.769253 -197.652951 
L 692.769253 -209.198884 
L 692.769253 -209.198884 
L 685.888441 -208.805271 
L 679.007629 -207.624433 
L 672.126817 -208.411644 
L 665.246005 -207.624433 
L 658.365193 -207.230828 
L 651.484381 -204.081934 
L 644.603569 -200.933047 
L 637.722757 -198.964991 
L 630.841945 -196.603314 
L 623.961133 -193.454427 
L 617.080321 -189.12471 
L 610.199509 -185.188597 
L 603.318697 -182.433316 
L 596.437885 -178.497203 
L 589.557072 -182.039711 
L 582.67626 -182.433316 
L 575.795448 -179.678034 
L 568.914636 -169.444148 
L 562.033824 -157.635811 
L 555.153012 -153.699699 
L 548.2722 -162.359149 
L 541.391388 -176.922752 
L 534.510576 -191.879991 
L 527.629764 -203.294708 
L 520.748952 -211.560545 
L 513.86814 -206.837215 
L 506.987328 -198.177765 
L 500.106516 -185.975823 
L 493.225704 -164.72081 
L 486.344892 -145.433854 
L 479.46408 -123.391601 
L 472.583268 -106.072731 
L 465.702456 -100.168562 
L 458.821644 -98.987731 
L 451.940832 -99.774927 
L 445.06002 -100.168562 
L 438.179208 -101.349408 
L 431.298396 -103.711039 
L 424.417583 -102.530239 
z
" style="stroke: #06d6a0; stroke-opacity: 0.18"/>
    </defs>
    <g clip-path="url(#p53afbf56e2)">
     <use xlink:href="#mc1e4d12b6e" x="0" y="230.4" style="fill: #06d6a0; fill-opacity: 0.18; stroke: #06d6a0; stroke-opacity: 0.18"/>
    </g>
   </g>
   <g id="line2d_24">
    <path d="M 424.417583 136.1125 
L 431.298396 132.319927 
L 438.179208 128.527379 
L 445.06002 127.579245 
L 451.940832 128.527379 
L 458.821644 132.319927 
L 465.702456 130.7397 
L 472.583268 123.786696 
L 479.46408 113.041156 
L 486.344892 102.611657 
L 493.225704 93.446332 
L 500.106516 84.913101 
L 506.987328 73.219415 
L 513.86814 72.903374 
L 520.748952 68.794785 
L 527.629764 63.105968 
L 534.510576 55.520871 
L 541.391388 49.516002 
L 548.2722 46.039506 
L 555.153012 43.827185 
L 562.033824 42.879051 
L 568.914636 40.982789 
L 575.795448 40.982789 
L 582.67626 39.718596 
L 589.557072 39.718596 
L 596.437885 39.718596 
L 603.318697 39.718596 
L 610.199509 40.350684 
L 617.080321 40.350684 
L 623.961133 40.66673 
L 630.841945 40.66673 
L 637.722757 40.982789 
L 644.603569 40.982789 
L 651.484381 42.246958 
L 658.365193 42.563017 
L 665.246005 42.563017 
L 672.126817 43.827185 
L 679.007629 44.143244 
L 685.888441 46.039506 
L 692.769253 46.355553 
" clip-path="url(#p53afbf56e2)" style="fill: none; stroke: #ef476f; stroke-width: 2; stroke-linecap: round"/>
   </g>
   <g id="line2d_25">
    <path d="M 424.417583 130.992363 
L 431.298396 133.347877 
L 438.179208 134.02087 
L 445.06002 130.992363 
L 451.940832 126.617845 
L 458.821644 124.262331 
L 465.702456 117.19579 
L 472.583268 107.100742 
L 479.46408 96.3327 
L 486.344892 85.228137 
L 493.225704 69.076063 
L 500.106516 54.942993 
L 506.987328 48.212961 
L 513.86814 53.596994 
L 520.748952 61.673025 
L 527.629764 66.720549 
L 534.510576 67.057058 
L 541.391388 67.730064 
L 548.2722 61.000032 
L 555.153012 62.346031 
L 562.033824 67.393555 
L 568.914636 67.730064 
L 575.795448 60.663523 
L 582.67626 55.952508 
L 589.557072 53.93349 
L 596.437885 51.914486 
L 603.318697 49.895469 
L 610.199509 48.212961 
L 617.080321 45.85746 
L 623.961133 45.85746 
L 630.841945 42.155934 
L 637.722757 40.136923 
L 644.603569 42.155934 
L 651.484381 39.800427 
L 658.365193 39.463924 
L 665.246005 39.463924 
L 672.126817 38.454415 
L 679.007629 39.800427 
L 685.888441 39.463924 
L 692.769253 38.02178 
" clip-path="url(#p53afbf56e2)" style="fill: none; stroke: #8266ff; stroke-width: 2; stroke-linecap: round"/>
   </g>
   <g id="line2d_26">
    <path d="M 424.417583 128.563269 
L 431.298396 127.438696 
L 438.179208 129.687869 
L 445.06002 130.812484 
L 451.940832 131.187375 
L 458.821644 131.937085 
L 465.702456 130.812484 
L 472.583268 125.189467 
L 479.46408 108.695304 
L 486.344892 87.702682 
L 493.225704 69.334153 
L 500.106516 49.091283 
L 506.987328 37.470386 
L 513.86814 29.223291 
L 520.748952 24.724881 
L 527.629764 32.597107 
L 534.510576 43.468266 
L 541.391388 57.713255 
L 548.2722 71.583354 
L 555.153012 79.830449 
L 562.033824 76.081771 
L 568.914636 64.835736 
L 575.795448 55.089178 
L 582.67626 52.4651 
L 589.557072 52.839962 
L 596.437885 56.213778 
L 603.318697 52.4651 
L 610.199509 49.841022 
L 617.080321 46.092344 
L 623.961133 41.968803 
L 630.841945 38.969863 
L 637.722757 36.720648 
L 644.603569 34.846308 
L 651.484381 31.847369 
L 658.365193 28.848422 
L 665.246005 28.473559 
L 672.126817 27.723835 
L 679.007629 28.473559 
L 685.888441 27.348952 
L 692.769253 26.974082 
" clip-path="url(#p53afbf56e2)" style="fill: none; stroke: #06d6a0; stroke-width: 2; stroke-linecap: round"/>
   </g>
   <g id="patch_6">
    <path d="M 411 142.308 
L 411 12.96 
" style="fill: none; stroke: #cccccc; stroke-width: 1.25; stroke-linejoin: miter; stroke-linecap: square"/>
   </g>
   <g id="patch_7">
    <path d="M 411 142.308 
L 706.186837 142.308 
" style="fill: none; stroke: #cccccc; stroke-width: 1.25; stroke-linejoin: miter; stroke-linecap: square"/>
   </g>
  </g>
  <g id="axes_3">
   <g id="patch_8">
    <path d="M 768.45 142.308 
L 1063.636837 142.308 
L 1063.636837 12.96 
L 768.45 12.96 
z
" style="fill: #ffffff"/>
   </g>
   <g id="matplotlib.axis_5">
    <g id="xtick_13">
     <g id="line2d_27">
      <path d="M 781.867583 142.308 
L 781.867583 12.96 
" clip-path="url(#pc80c787b3c)" style="fill: none; stroke: #afafaf; stroke-opacity: 0.55; stroke-width: 0.4; stroke-linecap: round"/>
     </g>
     <g id="text_25">
      <!-- 0 -->
      <g style="fill: #262626" transform="translate(779.087115 158.965813) scale(0.1 -0.1)">
       <use xlink:href="#ArialMT-30"/>
      </g>
     </g>
    </g>
    <g id="xtick_14">
     <g id="line2d_28">
      <path d="M 835.537917 142.308 
L 835.537917 12.96 
" clip-path="url(#pc80c787b3c)" style="fill: none; stroke: #afafaf; stroke-opacity: 0.55; stroke-width: 0.4; stroke-linecap: round"/>
     </g>
     <g id="text_26">
      <!-- 20000 -->
      <g style="fill: #262626" transform="translate(821.635574 158.965813) scale(0.1 -0.1)">
       <use xlink:href="#ArialMT-32"/>
       <use xlink:href="#ArialMT-30" x="55.615234"/>
       <use xlink:href="#ArialMT-30" x="111.230469"/>
       <use xlink:href="#ArialMT-30" x="166.845703"/>
       <use xlink:href="#ArialMT-30" x="222.460938"/>
      </g>
     </g>
    </g>
    <g id="xtick_15">
     <g id="line2d_29">
      <path d="M 889.208251 142.308 
L 889.208251 12.96 
" clip-path="url(#pc80c787b3c)" style="fill: none; stroke: #afafaf; stroke-opacity: 0.55; stroke-width: 0.4; stroke-linecap: round"/>
     </g>
     <g id="text_27">
      <!-- 40000 -->
      <g style="fill: #262626" transform="translate(875.305908 158.965813) scale(0.1 -0.1)">
       <use xlink:href="#ArialMT-34"/>
       <use xlink:href="#ArialMT-30" x="55.615234"/>
       <use xlink:href="#ArialMT-30" x="111.230469"/>
       <use xlink:href="#ArialMT-30" x="166.845703"/>
       <use xlink:href="#ArialMT-30" x="222.460938"/>
      </g>
     </g>
    </g>
    <g id="xtick_16">
     <g id="line2d_30">
      <path d="M 942.878585 142.308 
L 942.878585 12.96 
" clip-path="url(#pc80c787b3c)" style="fill: none; stroke: #afafaf; stroke-opacity: 0.55; stroke-width: 0.4; stroke-linecap: round"/>
     </g>
     <g id="text_28">
      <!-- 60000 -->
      <g style="fill: #262626" transform="translate(928.976241 158.965813) scale(0.1 -0.1)">
       <use xlink:href="#ArialMT-36"/>
       <use xlink:href="#ArialMT-30" x="55.615234"/>
       <use xlink:href="#ArialMT-30" x="111.230469"/>
       <use xlink:href="#ArialMT-30" x="166.845703"/>
       <use xlink:href="#ArialMT-30" x="222.460938"/>
      </g>
     </g>
    </g>
    <g id="xtick_17">
     <g id="line2d_31">
      <path d="M 996.548919 142.308 
L 996.548919 12.96 
" clip-path="url(#pc80c787b3c)" style="fill: none; stroke: #afafaf; stroke-opacity: 0.55; stroke-width: 0.4; stroke-linecap: round"/>
     </g>
     <g id="text_29">
      <!-- 80000 -->
      <g style="fill: #262626" transform="translate(982.646575 158.965813) scale(0.1 -0.1)">
       <use xlink:href="#ArialMT-38"/>
       <use xlink:href="#ArialMT-30" x="55.615234"/>
       <use xlink:href="#ArialMT-30" x="111.230469"/>
       <use xlink:href="#ArialMT-30" x="166.845703"/>
       <use xlink:href="#ArialMT-30" x="222.460938"/>
      </g>
     </g>
    </g>
    <g id="xtick_18">
     <g id="line2d_32">
      <path d="M 1050.219253 142.308 
L 1050.219253 12.96 
" clip-path="url(#pc80c787b3c)" style="fill: none; stroke: #afafaf; stroke-opacity: 0.55; stroke-width: 0.4; stroke-linecap: round"/>
     </g>
     <g id="text_30">
      <!-- 100000 -->
      <g style="fill: #262626" transform="translate(1033.536441 158.965813) scale(0.1 -0.1)">
       <use xlink:href="#ArialMT-31"/>
       <use xlink:href="#ArialMT-30" x="55.615234"/>
       <use xlink:href="#ArialMT-30" x="111.230469"/>
       <use xlink:href="#ArialMT-30" x="166.845703"/>
       <use xlink:href="#ArialMT-30" x="222.460938"/>
       <use xlink:href="#ArialMT-30" x="278.076172"/>
      </g>
     </g>
    </g>
    <g id="text_31">
     <!-- TimeSteps -->
     <g style="fill: #262626" transform="translate(889.964825 172.960969) scale(0.11 -0.11)">
      <use xlink:href="#ArialMT-54"/>
      <use xlink:href="#ArialMT-69" x="57.333984"/>
      <use xlink:href="#ArialMT-6d" x="79.550781"/>
      <use xlink:href="#ArialMT-65" x="162.851562"/>
      <use xlink:href="#ArialMT-53" x="218.466797"/>
      <use xlink:href="#ArialMT-74" x="285.166016"/>
      <use xlink:href="#ArialMT-65" x="312.949219"/>
      <use xlink:href="#ArialMT-70" x="368.564453"/>
      <use xlink:href="#ArialMT-73" x="424.179688"/>
     </g>
    </g>
   </g>
   <g id="matplotlib.axis_6">
    <g id="ytick_9">
     <g id="line2d_33">
      <path d="M 768.45 131.488154 
L 1063.636837 131.488154 
" clip-path="url(#pc80c787b3c)" style="fill: none; stroke: #afafaf; stroke-opacity: 0.55; stroke-width: 0.4; stroke-linecap: round"/>
     </g>
     <g id="text_32">
      <!-- 10.0 -->
      <g style="fill: #262626" transform="translate(739.489062 135.06706) scale(0.1 -0.1)">
       <defs>
        <path id="ArialMT-2e" d="M 581 0 
L 581 641 
L 1222 641 
L 1222 0 
L 581 0 
z
" transform="scale(0.015625)"/>
       </defs>
       <use xlink:href="#ArialMT-31"/>
       <use xlink:href="#ArialMT-30" x="55.615234"/>
       <use xlink:href="#ArialMT-2e" x="111.230469"/>
       <use xlink:href="#ArialMT-30" x="139.013672"/>
      </g>
     </g>
    </g>
    <g id="ytick_10">
     <g id="line2d_34">
      <path d="M 768.45 105.272078 
L 1063.636837 105.272078 
" clip-path="url(#pc80c787b3c)" style="fill: none; stroke: #afafaf; stroke-opacity: 0.55; stroke-width: 0.4; stroke-linecap: round"/>
     </g>
     <g id="text_33">
      <!-- 12.5 -->
      <g style="fill: #262626" transform="translate(739.489062 108.850984) scale(0.1 -0.1)">
       <defs>
        <path id="ArialMT-35" d="M 266 1200 
L 856 1250 
Q 922 819 1161 601 
Q 1400 384 1738 384 
Q 2144 384 2425 690 
Q 2706 997 2706 1503 
Q 2706 1984 2436 2262 
Q 2166 2541 1728 2541 
Q 1456 2541 1237 2417 
Q 1019 2294 894 2097 
L 366 2166 
L 809 4519 
L 3088 4519 
L 3088 3981 
L 1259 3981 
L 1013 2750 
Q 1425 3038 1878 3038 
Q 2478 3038 2890 2622 
Q 3303 2206 3303 1553 
Q 3303 931 2941 478 
Q 2500 -78 1738 -78 
Q 1113 -78 717 272 
Q 322 622 266 1200 
z
" transform="scale(0.015625)"/>
       </defs>
       <use xlink:href="#ArialMT-31"/>
       <use xlink:href="#ArialMT-32" x="55.615234"/>
       <use xlink:href="#ArialMT-2e" x="111.230469"/>
       <use xlink:href="#ArialMT-35" x="139.013672"/>
      </g>
     </g>
    </g>
    <g id="ytick_11">
     <g id="line2d_35">
      <path d="M 768.45 79.056002 
L 1063.636837 79.056002 
" clip-path="url(#pc80c787b3c)" style="fill: none; stroke: #afafaf; stroke-opacity: 0.55; stroke-width: 0.4; stroke-linecap: round"/>
     </g>
     <g id="text_34">
      <!-- 15.0 -->
      <g style="fill: #262626" transform="translate(739.489062 82.634908) scale(0.1 -0.1)">
       <use xlink:href="#ArialMT-31"/>
       <use xlink:href="#ArialMT-35" x="55.615234"/>
       <use xlink:href="#ArialMT-2e" x="111.230469"/>
       <use xlink:href="#ArialMT-30" x="139.013672"/>
      </g>
     </g>
    </g>
    <g id="ytick_12">
     <g id="line2d_36">
      <path d="M 768.45 52.839926 
L 1063.636837 52.839926 
" clip-path="url(#pc80c787b3c)" style="fill: none; stroke: #afafaf; stroke-opacity: 0.55; stroke-width: 0.4; stroke-linecap: round"/>
     </g>
     <g id="text_35">
      <!-- 17.5 -->
      <g style="fill: #262626" transform="translate(739.489062 56.418832) scale(0.1 -0.1)">
       <defs>
        <path id="ArialMT-37" d="M 303 3981 
L 303 4522 
L 3269 4522 
L 3269 4084 
Q 2831 3619 2401 2847 
Q 1972 2075 1738 1259 
Q 1569 684 1522 0 
L 944 0 
Q 953 541 1156 1306 
Q 1359 2072 1739 2783 
Q 2119 3494 2547 3981 
L 303 3981 
z
" transform="scale(0.015625)"/>
       </defs>
       <use xlink:href="#ArialMT-31"/>
       <use xlink:href="#ArialMT-37" x="55.615234"/>
       <use xlink:href="#ArialMT-2e" x="111.230469"/>
       <use xlink:href="#ArialMT-35" x="139.013672"/>
      </g>
     </g>
    </g>
    <g id="ytick_13">
     <g id="line2d_37">
      <path d="M 768.45 26.62385 
L 1063.636837 26.62385 
" clip-path="url(#pc80c787b3c)" style="fill: none; stroke: #afafaf; stroke-opacity: 0.55; stroke-width: 0.4; stroke-linecap: round"/>
     </g>
     <g id="text_36">
      <!-- 20.0 -->
      <g style="fill: #262626" transform="translate(739.489062 30.202756) scale(0.1 -0.1)">
       <use xlink:href="#ArialMT-32"/>
       <use xlink:href="#ArialMT-30" x="55.615234"/>
       <use xlink:href="#ArialMT-2e" x="111.230469"/>
       <use xlink:href="#ArialMT-30" x="139.013672"/>
      </g>
     </g>
    </g>
    <g id="text_37">
     <!-- Total Speed (km/h) -->
     <g style="fill: #262626" transform="translate(733.173906 123.787594) rotate(-90) scale(0.11 -0.11)">
      <defs>
       <path id="ArialMT-64" d="M 2575 0 
L 2575 419 
Q 2259 -75 1647 -75 
Q 1250 -75 917 144 
Q 584 363 401 755 
Q 219 1147 219 1656 
Q 219 2153 384 2558 
Q 550 2963 881 3178 
Q 1213 3394 1622 3394 
Q 1922 3394 2156 3267 
Q 2391 3141 2538 2938 
L 2538 4581 
L 3097 4581 
L 3097 0 
L 2575 0 
z
M 797 1656 
Q 797 1019 1065 703 
Q 1334 388 1700 388 
Q 2069 388 2326 689 
Q 2584 991 2584 1609 
Q 2584 2291 2321 2609 
Q 2059 2928 1675 2928 
Q 1300 2928 1048 2622 
Q 797 2316 797 1656 
z
" transform="scale(0.015625)"/>
       <path id="ArialMT-6b" d="M 425 0 
L 425 4581 
L 988 4581 
L 988 1969 
L 2319 3319 
L 3047 3319 
L 1778 2088 
L 3175 0 
L 2481 0 
L 1384 1697 
L 988 1316 
L 988 0 
L 425 0 
z
" transform="scale(0.015625)"/>
       <path id="ArialMT-2f" d="M 0 -78 
L 1328 4659 
L 1778 4659 
L 453 -78 
L 0 -78 
z
" transform="scale(0.015625)"/>
       <path id="ArialMT-68" d="M 422 0 
L 422 4581 
L 984 4581 
L 984 2938 
Q 1378 3394 1978 3394 
Q 2347 3394 2619 3248 
Q 2891 3103 3008 2847 
Q 3125 2591 3125 2103 
L 3125 0 
L 2563 0 
L 2563 2103 
Q 2563 2525 2380 2717 
Q 2197 2909 1863 2909 
Q 1613 2909 1392 2779 
Q 1172 2650 1078 2428 
Q 984 2206 984 1816 
L 984 0 
L 422 0 
z
" transform="scale(0.015625)"/>
      </defs>
      <use xlink:href="#ArialMT-54"/>
      <use xlink:href="#ArialMT-6f" x="49.958984"/>
      <use xlink:href="#ArialMT-74" x="105.574219"/>
      <use xlink:href="#ArialMT-61" x="133.357422"/>
      <use xlink:href="#ArialMT-6c" x="188.972656"/>
      <use xlink:href="#ArialMT-20" x="211.189453"/>
      <use xlink:href="#ArialMT-53" x="238.972656"/>
      <use xlink:href="#ArialMT-70" x="305.671875"/>
      <use xlink:href="#ArialMT-65" x="361.287109"/>
      <use xlink:href="#ArialMT-65" x="416.902344"/>
      <use xlink:href="#ArialMT-64" x="472.517578"/>
      <use xlink:href="#ArialMT-20" x="528.132812"/>
      <use xlink:href="#ArialMT-28" x="555.916016"/>
      <use xlink:href="#ArialMT-6b" x="589.216797"/>
      <use xlink:href="#ArialMT-6d" x="639.216797"/>
      <use xlink:href="#ArialMT-2f" x="722.517578"/>
      <use xlink:href="#ArialMT-68" x="750.300781"/>
      <use xlink:href="#ArialMT-29" x="805.916016"/>
     </g>
    </g>
   </g>
   <g id="PolyCollection_7">
    <defs>
     <path id="m984849779b" d="M 781.867583 -105.506072 
L 781.867583 -94.890974 
L 788.748396 -95.502137 
L 795.629208 -97.335649 
L 802.51002 -107.725584 
L 809.390832 -115.670819 
L 816.271644 -126.060753 
L 823.152456 -138.895386 
L 830.033268 -132.172476 
L 836.91408 -124.838404 
L 843.794892 -123.616078 
L 850.675704 -133.394826 
L 857.556516 -144.395923 
L 864.437328 -148.674134 
L 871.31814 -134.617175 
L 878.198952 -126.671939 
L 885.079764 -128.505452 
L 891.960576 -146.229435 
L 898.841388 -165.175791 
L 905.7222 -158.452881 
L 912.603012 -121.782542 
L 919.483824 -136.450687 
L 926.364636 -157.230555 
L 933.245448 -169.454002 
L 940.12626 -172.509863 
L 947.007072 -171.898677 
L 953.887885 -152.341158 
L 960.768697 -171.287514 
L 967.649509 -177.399237 
L 974.530321 -171.287514 
L 981.411133 -183.51096 
L 988.291945 -181.066273 
L 995.172757 -179.23275 
L 1002.053569 -181.677436 
L 1008.934381 -186.566822 
L 1015.815193 -186.566822 
L 1022.696005 -186.566822 
L 1029.576817 -184.122135 
L 1036.457629 -185.955624 
L 1043.338441 -189.622684 
L 1050.219253 -190.845021 
L 1050.219253 -211.560545 
L 1050.219253 -211.560545 
L 1043.338441 -210.209541 
L 1036.457629 -206.156475 
L 1029.576817 -204.129987 
L 1022.696005 -206.832009 
L 1015.815193 -206.832009 
L 1008.934381 -206.832009 
L 1002.053569 -201.427952 
L 995.172757 -198.725929 
L 988.291945 -200.752456 
L 981.411133 -203.454478 
L 974.530321 -189.944353 
L 967.649509 -196.699416 
L 960.768697 -189.944353 
L 953.887885 -169.003644 
L 947.007072 -190.619849 
L 940.12626 -191.295371 
L 933.245448 -187.91784 
L 926.364636 -174.407715 
L 919.483824 -151.440492 
L 912.603012 -135.228332 
L 905.7222 -175.758707 
L 898.841388 -183.189291 
L 891.960576 -162.248582 
L 885.079764 -142.658916 
L 878.198952 -140.632402 
L 871.31814 -149.413978 
L 864.437328 -164.950617 
L 857.556516 -160.222068 
L 850.675704 -148.062961 
L 843.794892 -137.254871 
L 836.91408 -138.605863 
L 830.033268 -146.711943 
L 823.152456 -154.142527 
L 816.271644 -139.956881 
L 809.390832 -128.473269 
L 802.51002 -119.691693 
L 795.629208 -108.208082 
L 788.748396 -106.181568 
L 781.867583 -105.506072 
z
" style="stroke: #ef476f; stroke-opacity: 0.18"/>
    </defs>
    <g clip-path="url(#pc80c787b3c)">
     <use xlink:href="#m984849779b" x="0" y="230.4" style="fill: #ef476f; fill-opacity: 0.18; stroke: #ef476f; stroke-opacity: 0.18"/>
    </g>
   </g>
   <g id="PolyCollection_8">
    <defs>
     <path id="m0c82b5223a" d="M 781.867583 -112.883121 
L 781.867583 -101.565447 
L 788.748396 -105.21011 
L 795.629208 -111.892025 
L 802.51002 -119.788812 
L 809.390832 -120.396248 
L 816.271644 -109.462233 
L 823.152456 -116.751584 
L 830.033268 -127.078162 
L 836.91408 -133.152617 
L 843.794892 -113.714357 
L 850.675704 -136.189845 
L 857.556516 -148.946191 
L 864.437328 -110.677129 
L 871.31814 -105.21011 
L 878.198952 -129.50793 
L 885.079764 -153.198314 
L 891.960576 -134.974949 
L 898.841388 -153.805751 
L 905.7222 -145.908964 
L 912.603012 -138.619613 
L 919.483824 -145.908964 
L 926.364636 -158.66531 
L 933.245448 -164.132329 
L 940.12626 -146.5164 
L 947.007072 -139.834509 
L 953.887885 -151.983419 
L 960.768697 -162.917433 
L 967.649509 -139.227072 
L 974.530321 -130.11539 
L 981.411133 -128.293035 
L 988.291945 -156.842978 
L 995.172757 -149.553627 
L 1002.053569 -131.937722 
L 1008.934381 -148.338755 
L 1015.815193 -161.095101 
L 1022.696005 -148.338755 
L 1029.576817 -141.656841 
L 1036.457629 -152.590855 
L 1043.338441 -162.917433 
L 1050.219253 -170.206784 
L 1050.219253 -188.749862 
L 1050.219253 -188.749862 
L 1043.338441 -180.693211 
L 1036.457629 -169.279625 
L 1029.576817 -157.194661 
L 1022.696005 -164.579935 
L 1015.815193 -178.679055 
L 1008.934381 -164.579935 
L 1002.053569 -146.452478 
L 995.172757 -165.922689 
L 988.291945 -173.97934 
L 981.411133 -142.424139 
L 974.530321 -144.438321 
L 967.649509 -154.509128 
L 960.768697 -180.693211 
L 953.887885 -168.608248 
L 947.007072 -155.180505 
L 940.12626 -162.565753 
L 933.245448 -182.035991 
L 926.364636 -175.993496 
L 919.483824 -161.894377 
L 912.603012 -153.837726 
L 905.7222 -161.894377 
L 898.841388 -170.622404 
L 891.960576 -149.809413 
L 885.079764 -169.951027 
L 878.198952 -143.766919 
L 871.31814 -116.911433 
L 864.437328 -122.953928 
L 857.556516 -165.251312 
L 850.675704 -151.152193 
L 843.794892 -126.310863 
L 836.91408 -147.795257 
L 830.033268 -141.081386 
L 823.152456 -129.667799 
L 816.271644 -121.611148 
L 809.390832 -133.696112 
L 802.51002 -133.024735 
L 795.629208 -124.296707 
L 788.748396 -116.911433 
L 781.867583 -112.883121 
z
" style="stroke: #8266ff; stroke-opacity: 0.18"/>
    </defs>
    <g clip-path="url(#pc80c787b3c)">
     <use xlink:href="#m0c82b5223a" x="0" y="230.4" style="fill: #8266ff; fill-opacity: 0.18; stroke: #8266ff; stroke-opacity: 0.18"/>
    </g>
   </g>
   <g id="PolyCollection_9">
    <defs>
     <path id="m70bf71e066" d="M 781.867583 -104.489761 
L 781.867583 -93.971455 
L 788.748396 -95.788248 
L 795.629208 -100.027446 
L 802.51002 -103.661032 
L 809.390832 -112.74502 
L 816.271644 -110.322637 
L 823.152456 -100.633036 
L 830.033268 -110.928227 
L 836.91408 -124.857004 
L 843.794892 -136.363398 
L 850.675704 -139.391394 
L 857.556516 -137.574601 
L 864.437328 -134.546605 
L 871.31814 -134.546605 
L 878.198952 -139.391394 
L 885.079764 -146.052976 
L 891.960576 -153.925784 
L 898.841388 -163.009772 
L 905.7222 -173.910553 
L 912.603012 -157.55937 
L 919.483824 -143.630593 
L 926.364636 -152.108968 
L 933.245448 -166.037768 
L 940.12626 -173.304928 
L 947.007072 -161.798569 
L 953.887885 -166.643358 
L 960.768697 -175.727346 
L 967.649509 -163.615362 
L 974.530321 -177.54415 
L 981.411133 -186.022536 
L 988.291945 -179.966545 
L 995.172757 -184.811333 
L 1002.053569 -187.233728 
L 1008.934381 -179.966545 
L 1015.815193 -185.416912 
L 1022.696005 -164.220952 
L 1029.576817 -187.839329 
L 1036.457629 -171.488147 
L 1043.338441 -178.14974 
L 1050.219253 -186.628138 
L 1050.219253 -206.89978 
L 1050.219253 -206.89978 
L 1043.338441 -197.528919 
L 1036.457629 -190.166105 
L 1029.576817 -208.238465 
L 1022.696005 -182.133942 
L 1015.815193 -205.561056 
L 1008.934381 -199.536966 
L 1002.053569 -207.569116 
L 995.172757 -204.891733 
L 988.291945 -199.536966 
L 981.411133 -206.230431 
L 974.530321 -196.859583 
L 967.649509 -181.464606 
L 960.768697 -194.851535 
L 953.887885 -184.811338 
L 947.007072 -179.456572 
L 940.12626 -192.174127 
L 933.245448 -184.142002 
L 926.364636 -168.747013 
L 919.483824 -159.376177 
L 912.603012 -174.771141 
L 905.7222 -192.843501 
L 898.841388 -180.79527 
L 891.960576 -170.755073 
L 885.079764 -162.053548 
L 878.198952 -154.690747 
L 871.31814 -149.33598 
L 864.437328 -149.33598 
L 857.556516 -152.682713 
L 850.675704 -154.690747 
L 843.794892 -151.344015 
L 836.91408 -138.626421 
L 830.033268 -123.231457 
L 823.152456 -111.852562 
L 816.271644 -122.562121 
L 809.390832 -125.239492 
L 802.51002 -115.199295 
L 795.629208 -111.183226 
L 788.748396 -106.497796 
L 781.867583 -104.489761 
z
" style="stroke: #06d6a0; stroke-opacity: 0.18"/>
    </defs>
    <g clip-path="url(#pc80c787b3c)">
     <use xlink:href="#m70bf71e066" x="0" y="230.4" style="fill: #06d6a0; fill-opacity: 0.18; stroke: #06d6a0; stroke-opacity: 0.18"/>
    </g>
   </g>
   <g id="line2d_38">
    <path d="M 781.867583 130.201477 
L 788.748396 129.558147 
L 795.629208 127.628134 
L 802.51002 116.691362 
L 809.390832 108.327956 
L 816.271644 97.391183 
L 823.152456 83.881043 
L 830.033268 90.95779 
L 836.91408 98.677867 
L 843.794892 99.964526 
L 850.675704 89.671107 
L 857.556516 78.091005 
L 864.437328 73.587625 
L 871.31814 88.384423 
L 878.198952 96.747829 
L 885.079764 94.817816 
L 891.960576 76.160992 
L 898.841388 56.217459 
L 905.7222 63.294206 
L 912.603012 101.894563 
L 919.483824 86.45441 
L 926.364636 64.580865 
L 933.245448 51.714079 
L 940.12626 48.497383 
L 947.007072 49.140737 
L 953.887885 69.727599 
L 960.768697 49.784066 
L 967.649509 43.350674 
L 974.530321 49.784066 
L 981.411133 36.917281 
L 988.291945 39.490635 
L 995.172757 41.420661 
L 1002.053569 38.847306 
L 1008.934381 33.700584 
L 1015.815193 33.700584 
L 1022.696005 33.700584 
L 1029.576817 36.273939 
L 1036.457629 34.343951 
L 1043.338441 30.483888 
L 1050.219253 29.197217 
" clip-path="url(#pc80c787b3c)" style="fill: none; stroke: #ef476f; stroke-width: 2; stroke-linecap: round"/>
   </g>
   <g id="line2d_39">
    <path d="M 781.867583 123.175716 
L 788.748396 119.339228 
L 795.629208 112.305634 
L 802.51002 103.993227 
L 809.390832 103.35382 
L 816.271644 114.863309 
L 823.152456 107.190308 
L 830.033268 96.320226 
L 836.91408 89.926063 
L 843.794892 110.38739 
L 850.675704 86.728981 
L 857.556516 73.301248 
L 864.437328 113.584472 
L 871.31814 119.339228 
L 878.198952 93.762575 
L 885.079764 68.825329 
L 891.960576 88.007819 
L 898.841388 68.185923 
L 905.7222 76.49833 
L 912.603012 84.171331 
L 919.483824 76.49833 
L 926.364636 63.070597 
L 933.245448 57.31584 
L 940.12626 75.858923 
L 947.007072 82.892493 
L 953.887885 70.104167 
L 960.768697 58.594678 
L 967.649509 83.5319 
L 974.530321 93.123144 
L 981.411133 95.041413 
L 988.291945 64.988841 
L 995.172757 72.661842 
L 1002.053569 91.2049 
L 1008.934381 73.940655 
L 1015.815193 60.512922 
L 1022.696005 73.940655 
L 1029.576817 80.974249 
L 1036.457629 69.46476 
L 1043.338441 58.594678 
L 1050.219253 50.921677 
" clip-path="url(#pc80c787b3c)" style="fill: none; stroke: #8266ff; stroke-width: 2; stroke-linecap: round"/>
   </g>
   <g id="line2d_40">
    <path d="M 781.867583 131.169392 
L 788.748396 129.256978 
L 795.629208 124.794664 
L 802.51002 120.969837 
L 809.390832 111.407744 
L 816.271644 113.957621 
L 823.152456 124.157201 
L 830.033268 113.320158 
L 836.91408 98.658287 
L 843.794892 86.546294 
L 850.675704 83.35893 
L 857.556516 85.271343 
L 864.437328 88.458707 
L 871.31814 88.458707 
L 878.198952 83.35893 
L 885.079764 76.346738 
L 891.960576 68.059572 
L 898.841388 58.497479 
L 905.7222 47.022973 
L 912.603012 64.234745 
L 919.483824 78.896615 
L 926.364636 69.97201 
L 933.245448 55.310115 
L 940.12626 47.660473 
L 947.007072 59.77243 
L 953.887885 54.672652 
L 960.768697 45.110559 
L 967.649509 57.860016 
L 974.530321 43.198134 
L 981.411133 34.273516 
L 988.291945 40.648245 
L 995.172757 35.548467 
L 1002.053569 32.998578 
L 1008.934381 40.648245 
L 1015.815193 34.911016 
L 1022.696005 57.222553 
L 1029.576817 32.361103 
L 1036.457629 49.572874 
L 1043.338441 42.560671 
L 1050.219253 33.636041 
" clip-path="url(#pc80c787b3c)" style="fill: none; stroke: #06d6a0; stroke-width: 2; stroke-linecap: round"/>
   </g>
   <g id="patch_9">
    <path d="M 768.45 142.308 
L 768.45 12.96 
" style="fill: none; stroke: #cccccc; stroke-width: 1.25; stroke-linejoin: miter; stroke-linecap: square"/>
   </g>
   <g id="patch_10">
    <path d="M 768.45 142.308 
L 1063.636837 142.308 
" style="fill: none; stroke: #cccccc; stroke-width: 1.25; stroke-linejoin: miter; stroke-linecap: square"/>
   </g>
  </g>
  <g id="legend_1">
   <g id="line2d_41">
    <path d="M 333.011797 198.206844 
L 346.761797 198.206844 
L 360.511797 198.206844 
" style="fill: none; stroke: #ef476f; stroke-width: 3; stroke-linecap: round"/>
   </g>
   <g id="text_38">
    <!-- Image_Lidar -->
    <g style="fill: #262626" transform="translate(369.311797 202.056844) scale(0.11 -0.11)">
     <defs>
      <path id="ArialMT-49" d="M 597 0 
L 597 4581 
L 1203 4581 
L 1203 0 
L 597 0 
z
" transform="scale(0.015625)"/>
      <path id="ArialMT-67" d="M 319 -275 
L 866 -356 
Q 900 -609 1056 -725 
Q 1266 -881 1628 -881 
Q 2019 -881 2231 -725 
Q 2444 -569 2519 -288 
Q 2563 -116 2559 434 
Q 2191 0 1641 0 
Q 956 0 581 494 
Q 206 988 206 1678 
Q 206 2153 378 2554 
Q 550 2956 876 3175 
Q 1203 3394 1644 3394 
Q 2231 3394 2613 2919 
L 2613 3319 
L 3131 3319 
L 3131 450 
Q 3131 -325 2973 -648 
Q 2816 -972 2473 -1159 
Q 2131 -1347 1631 -1347 
Q 1038 -1347 672 -1080 
Q 306 -813 319 -275 
z
M 784 1719 
Q 784 1066 1043 766 
Q 1303 466 1694 466 
Q 2081 466 2343 764 
Q 2606 1063 2606 1700 
Q 2606 2309 2336 2618 
Q 2066 2928 1684 2928 
Q 1309 2928 1046 2623 
Q 784 2319 784 1719 
z
" transform="scale(0.015625)"/>
      <path id="ArialMT-5f" d="M -97 -1272 
L -97 -866 
L 3631 -866 
L 3631 -1272 
L -97 -1272 
z
" transform="scale(0.015625)"/>
      <path id="ArialMT-4c" d="M 469 0 
L 469 4581 
L 1075 4581 
L 1075 541 
L 3331 541 
L 3331 0 
L 469 0 
z
" transform="scale(0.015625)"/>
     </defs>
     <use xlink:href="#ArialMT-49"/>
     <use xlink:href="#ArialMT-6d" x="27.783203"/>
     <use xlink:href="#ArialMT-61" x="111.083984"/>
     <use xlink:href="#ArialMT-67" x="166.699219"/>
     <use xlink:href="#ArialMT-65" x="222.314453"/>
     <use xlink:href="#ArialMT-5f" x="277.929688"/>
     <use xlink:href="#ArialMT-4c" x="333.544922"/>
     <use xlink:href="#ArialMT-69" x="389.160156"/>
     <use xlink:href="#ArialMT-64" x="411.376953"/>
     <use xlink:href="#ArialMT-61" x="466.992188"/>
     <use xlink:href="#ArialMT-72" x="522.607422"/>
    </g>
   </g>
   <g id="line2d_42">
    <path d="M 452.456328 198.206844 
L 466.206328 198.206844 
L 479.956328 198.206844 
" style="fill: none; stroke: #8266ff; stroke-width: 3; stroke-linecap: round"/>
   </g>
   <g id="text_39">
    <!-- Image_Lidar_PID -->
    <g style="fill: #262626" transform="translate(488.756328 202.056844) scale(0.11 -0.11)">
     <use xlink:href="#ArialMT-49"/>
     <use xlink:href="#ArialMT-6d" x="27.783203"/>
     <use xlink:href="#ArialMT-61" x="111.083984"/>
     <use xlink:href="#ArialMT-67" x="166.699219"/>
     <use xlink:href="#ArialMT-65" x="222.314453"/>
     <use xlink:href="#ArialMT-5f" x="277.929688"/>
     <use xlink:href="#ArialMT-4c" x="333.544922"/>
     <use xlink:href="#ArialMT-69" x="389.160156"/>
     <use xlink:href="#ArialMT-64" x="411.376953"/>
     <use xlink:href="#ArialMT-61" x="466.992188"/>
     <use xlink:href="#ArialMT-72" x="522.607422"/>
     <use xlink:href="#ArialMT-5f" x="555.908203"/>
     <use xlink:href="#ArialMT-50" x="611.523438"/>
     <use xlink:href="#ArialMT-49" x="678.222656"/>
     <use xlink:href="#ArialMT-44" x="706.005859"/>
    </g>
   </g>
   <g id="line2d_43">
    <path d="M 596.355234 198.206844 
L 610.105234 198.206844 
L 623.855234 198.206844 
" style="fill: none; stroke: #06d6a0; stroke-width: 3; stroke-linecap: round"/>
   </g>
   <g id="text_40">
    <!-- Image_Lidar_PID_VLM -->
    <g style="fill: #262626" transform="translate(632.655234 202.056844) scale(0.11 -0.11)">
     <defs>
      <path id="ArialMT-56" d="M 1803 0 
L 28 4581 
L 684 4581 
L 1875 1253 
Q 2019 853 2116 503 
Q 2222 878 2363 1253 
L 3600 4581 
L 4219 4581 
L 2425 0 
L 1803 0 
z
" transform="scale(0.015625)"/>
      <path id="ArialMT-4d" d="M 475 0 
L 475 4581 
L 1388 4581 
L 2472 1338 
Q 2622 884 2691 659 
Q 2769 909 2934 1394 
L 4031 4581 
L 4847 4581 
L 4847 0 
L 4263 0 
L 4263 3834 
L 2931 0 
L 2384 0 
L 1059 3900 
L 1059 0 
L 475 0 
z
" transform="scale(0.015625)"/>
     </defs>
     <use xlink:href="#ArialMT-49"/>
     <use xlink:href="#ArialMT-6d" x="27.783203"/>
     <use xlink:href="#ArialMT-61" x="111.083984"/>
     <use xlink:href="#ArialMT-67" x="166.699219"/>
     <use xlink:href="#ArialMT-65" x="222.314453"/>
     <use xlink:href="#ArialMT-5f" x="277.929688"/>
     <use xlink:href="#ArialMT-4c" x="333.544922"/>
     <use xlink:href="#ArialMT-69" x="389.160156"/>
     <use xlink:href="#ArialMT-64" x="411.376953"/>
     <use xlink:href="#ArialMT-61" x="466.992188"/>
     <use xlink:href="#ArialMT-72" x="522.607422"/>
     <use xlink:href="#ArialMT-5f" x="555.908203"/>
     <use xlink:href="#ArialMT-50" x="611.523438"/>
     <use xlink:href="#ArialMT-49" x="678.222656"/>
     <use xlink:href="#ArialMT-44" x="706.005859"/>
     <use xlink:href="#ArialMT-5f" x="778.222656"/>
     <use xlink:href="#ArialMT-56" x="833.837891"/>
     <use xlink:href="#ArialMT-4c" x="900.537109"/>
     <use xlink:href="#ArialMT-4d" x="956.152344"/>
    </g>
   </g>
  </g>
 </g>
 <defs>
  <clipPath id="p39243e6edc">
   <rect x="53.55" y="12.96" width="295.186837" height="129.348"/>
  </clipPath>
  <clipPath id="p53afbf56e2">
   <rect x="411" y="12.96" width="295.186837" height="129.348"/>
  </clipPath>
  <clipPath id="pc80c787b3c">
   <rect x="768.45" y="12.96" width="295.186837" height="129.348"/>
  </clipPath>
 </defs>
</svg>
